<?xml version="1.0" encoding="utf-8"?>
<!-- Generator: Adobe Illustrator 19.0.1, SVG Export Plug-In . SVG Version: 6.00 Build 0)  -->
<svg version="1.1" id="Слой_1" xmlns="http://www.w3.org/2000/svg" xmlns:xlink="http://www.w3.org/1999/xlink" x="0px" y="0px"
	 viewBox="-220 221 58 60" style="enable-background:new -220 221 58 60;" xml:space="preserve">
<style type="text/css">
	.st0{fill:#69B53D;}
</style>
<g>
	<path d="M-162,229h-4v-4h-4v-4h-42v4h-4v4h-4v32h4v4h4v4h42v-4h4v-4h4V229z M-218,259v-28h2v28H-218z M-214,263v-2v-32v-2h2v36
		H-214z M-172,267h-38v-2v-40v-2h38v2v40V267z M-168,263h-2v-36h2v2v32V263z M-164,259h-2v-28h2V259z"/>
	<circle class="st0" cx="-203" cy="230" r="1"/>
	<circle cx="-206" cy="227" r="1"/>
	<circle cx="-200" cy="227" r="1"/>
	<circle cx="-206" cy="233" r="1"/>
	<circle cx="-200" cy="233" r="1"/>
	<circle class="st0" cx="-197" cy="230" r="1"/>
	<circle class="st0" cx="-191" cy="230" r="1"/>
	<circle cx="-194" cy="227" r="1"/>
	<circle cx="-188" cy="227" r="1"/>
	<circle cx="-194" cy="233" r="1"/>
	<circle cx="-188" cy="233" r="1"/>
	<circle class="st0" cx="-185" cy="230" r="1"/>
	<circle class="st0" cx="-179" cy="230" r="1"/>
	<circle cx="-182" cy="227" r="1"/>
	<circle cx="-176" cy="227" r="1"/>
	<circle cx="-182" cy="233" r="1"/>
	<circle cx="-176" cy="233" r="1"/>
	<circle class="st0" cx="-203" cy="236" r="1"/>
	<circle class="st0" cx="-203" cy="242" r="1"/>
	<circle cx="-206" cy="239" r="1"/>
	<circle cx="-200" cy="239" r="1"/>
	<circle cx="-206" cy="245" r="1"/>
	<circle cx="-200" cy="245" r="1"/>
	<circle class="st0" cx="-197" cy="236" r="1"/>
	<circle class="st0" cx="-191" cy="236" r="1"/>
	<circle class="st0" cx="-197" cy="242" r="1"/>
	<circle class="st0" cx="-191" cy="242" r="1"/>
	<circle cx="-194" cy="239" r="1"/>
	<circle cx="-188" cy="239" r="1"/>
	<circle cx="-194" cy="245" r="1"/>
	<circle cx="-188" cy="245" r="1"/>
	<circle class="st0" cx="-185" cy="236" r="1"/>
	<circle class="st0" cx="-179" cy="236" r="1"/>
	<circle class="st0" cx="-185" cy="242" r="1"/>
	<circle class="st0" cx="-179" cy="242" r="1"/>
	<circle cx="-182" cy="239" r="1"/>
	<circle cx="-176" cy="239" r="1"/>
	<circle cx="-182" cy="245" r="1"/>
	<circle cx="-176" cy="245" r="1"/>
	<circle class="st0" cx="-203" cy="248" r="1"/>
	<circle class="st0" cx="-203" cy="254" r="1"/>
	<circle cx="-206" cy="251" r="1"/>
	<circle cx="-200" cy="251" r="1"/>
	<circle cx="-206" cy="257" r="1"/>
	<circle cx="-200" cy="257" r="1"/>
	<circle class="st0" cx="-197" cy="248" r="1"/>
	<circle class="st0" cx="-191" cy="248" r="1"/>
	<circle class="st0" cx="-197" cy="254" r="1"/>
	<circle class="st0" cx="-191" cy="254" r="1"/>
	<circle cx="-194" cy="251" r="1"/>
	<circle cx="-188" cy="251" r="1"/>
	<circle cx="-194" cy="257" r="1"/>
	<circle cx="-188" cy="257" r="1"/>
	<circle class="st0" cx="-185" cy="248" r="1"/>
	<circle class="st0" cx="-179" cy="248" r="1"/>
	<circle class="st0" cx="-185" cy="254" r="1"/>
	<circle class="st0" cx="-179" cy="254" r="1"/>
	<circle cx="-182" cy="251" r="1"/>
	<circle cx="-176" cy="251" r="1"/>
	<circle cx="-182" cy="257" r="1"/>
	<circle cx="-176" cy="257" r="1"/>
	<circle class="st0" cx="-203" cy="260" r="1"/>
	<circle cx="-206" cy="263" r="1"/>
	<circle cx="-200" cy="263" r="1"/>
	<circle class="st0" cx="-197" cy="260" r="1"/>
	<circle class="st0" cx="-191" cy="260" r="1"/>
	<circle cx="-194" cy="263" r="1"/>
	<circle cx="-188" cy="263" r="1"/>
	<circle class="st0" cx="-185" cy="260" r="1"/>
	<circle class="st0" cx="-179" cy="260" r="1"/>
	<circle cx="-182" cy="263" r="1"/>
	<circle cx="-176" cy="263" r="1"/>
</g>
</svg>
