<?xml version="1.0" encoding="utf-8"?>
<!-- Generator: Adobe Illustrator 19.0.1, SVG Export Plug-In . SVG Version: 6.00 Build 0)  -->
<svg version="1.1" id="Слой_1" xmlns="http://www.w3.org/2000/svg" xmlns:xlink="http://www.w3.org/1999/xlink" x="0px" y="0px"
	 viewBox="0 0 70 70" style="enable-background:new 0 0 70 70;" xml:space="preserve">
<style type="text/css">
	.st0{fill:#010202;}
	.st1{fill:#6AB53F;}
	.st2{clip-path:url(#SVGID_2_);}
	.st3{fill:#FFFFFF;}
</style>
<g>
	<path class="st0" d="M42.9,28H11.6c-0.7,0-1.2,0.5-1.2,1.2v26.6c0,0.7,0.5,1.2,1.2,1.2h31.3c0.7,0,1.2-0.5,1.2-1.2V29.2
		C44,28.5,43.5,28,42.9,28z M41.7,54.7h-29V30.4h29V54.7z"/>
	<path class="st0" d="M62.5,20.1v-2.4c0-0.7-0.5-1.2-1.2-1.2H49.8c-0.7,0-1.2,0.5-1.2,1.2v2.3h-7.4l-4.3-7.5c-0.2-0.3-0.6-0.6-1-0.6
		H18.5c-0.5,0-0.8,0.2-1,0.6l-4.3,7.5H8.1C3.6,19.9,0,23.5,0,28v1.2v4.6v4.6v4.6v4.6v4.6v1.2c0,4.5,3.6,8.1,8.1,8.1h53.3
		c4.5,0,8.1-3.6,8.1-8.1V26.9C69.5,23.1,66.7,20.4,62.5,20.1z M51,18.8h9.3v1.2H51V18.8z M2.3,30.4h3.5v2.3H2.3V30.4z M2.3,39.6h3.5
		v2.3H2.3V39.6z M2.3,48.9h3.5v2.3H2.3V48.9z M67.2,53.5c0,3.2-2.5,5.8-5.8,5.8H8.1c-3.2,0-5.8-2.5-5.8-5.8H7c0.7,0,1.2-0.5,1.2-1.2
		v-4.6c0-0.7-0.5-1.2-1.2-1.2H2.3v-2.3H7c0.7,0,1.2-0.5,1.2-1.2v-4.6c0-0.7-0.5-1.2-1.2-1.2H2.3V35H7c0.7,0,1.2-0.5,1.2-1.2v-4.6
		C8.1,28.5,7.6,28,7,28H2.3c0-3.2,2.5-5.8,5.8-5.8h5.8c0.5,0,0.8-0.2,1-0.6l4.3-7.5h16l4.3,7.5c0.2,0.3,0.6,0.6,1,0.6h9.3h11.6
		c2.8,0,5.8,1.3,5.8,4.6L67.2,53.5L67.2,53.5z"/>
	<path class="st0" d="M55.6,31.5c-5.1,0-9.3,4.2-9.3,9.3s4.2,9.3,9.3,9.3c5.1,0,9.3-4.2,9.3-9.3S60.7,31.5,55.6,31.5z M55.6,47.7
		c-3.8,0-6.9-3.1-6.9-6.9s3.1-6.9,6.9-6.9s6.9,3.1,6.9,6.9S59.4,47.7,55.6,47.7z"/>
	<path class="st1" d="M55.6,39.6c0.7,0,1.2-0.5,1.2-1.2v-2.3c0-0.7-0.5-1.2-1.2-1.2c-0.7,0-1.2,0.5-1.2,1.2v2.3
		C54.4,39.2,54.9,39.6,55.6,39.6z"/>
	<path class="st1" d="M55.6,41.9c-0.7,0-1.2,0.5-1.2,1.2v2.3c0,0.7,0.5,1.2,1.2,1.2c0.7,0,1.2-0.5,1.2-1.2v-2.3
		C56.8,42.4,56.3,41.9,55.6,41.9z"/>
	<path class="st1" d="M53.3,39.6H51c-0.7,0-1.2,0.5-1.2,1.2c0,0.7,0.5,1.2,1.2,1.2h2.3c0.7,0,1.2-0.5,1.2-1.2
		C54.4,40.1,54,39.6,53.3,39.6z"/>
	<path class="st1" d="M57.9,39.6c-0.7,0-1.2,0.5-1.2,1.2c0,0.7,0.5,1.2,1.2,1.2h2.3c0.7,0,1.2-0.5,1.2-1.2c0-0.7-0.5-1.2-1.2-1.2
		H57.9z"/>
	<path class="st0" d="M22,22.3h10.4c0.7,0,1.2-0.5,1.2-1.2v-4.6c0-0.7-0.5-1.2-1.2-1.2H22c-0.7,0-1.2,0.5-1.2,1.2v4.6
		C20.9,21.8,21.3,22.3,22,22.3z M23.2,17.6h8.1v2.3h-8.1V17.6z"/>
	<path class="st0" d="M53.3,53.5h-4.6c-0.7,0-1.2,0.5-1.2,1.2c0,0.7,0.5,1.2,1.2,1.2h4.6c0.7,0,1.2-0.5,1.2-1.2
		C54.4,54,54,53.5,53.3,53.5z"/>
	<path class="st1" d="M62.5,53.5h-4.6c-0.7,0-1.2,0.5-1.2,1.2c0,0.7,0.5,1.2,1.2,1.2h4.6c0.7,0,1.2-0.5,1.2-1.2
		C63.7,54,63.2,53.5,62.5,53.5z"/>
	<path class="st0" d="M23.2,44.3c0.3,0,0.6-0.1,0.8-0.3l5.8-5.8c0.5-0.5,0.5-1.2,0-1.6c-0.5-0.5-1.2-0.5-1.6,0l-5.8,5.8
		c-0.5,0.5-0.5,1.2,0,1.6C22.6,44.1,22.8,44.3,23.2,44.3z"/>
	<path class="st0" d="M28.1,43.5l-2.3,2.3c-0.5,0.5-0.5,1.2,0,1.6c0.2,0.2,0.6,0.3,0.8,0.3s0.6-0.1,0.8-0.3l2.3-2.3
		c0.5-0.5,0.5-1.2,0-1.6C29.3,43,28.6,43,28.1,43.5z"/>
	<path class="st0" d="M30.5,42.8c0.2,0.2,0.6,0.3,0.8,0.3s0.6-0.1,0.8-0.3l1.2-1.2c0.5-0.5,0.5-1.2,0-1.6s-1.2-0.5-1.6,0l-1.2,1.2
		C30,41.6,30,42.3,30.5,42.8z"/>
</g>
</svg>
