<?xml version="1.0" encoding="utf-8"?>
<!-- Generator: Adobe Illustrator 19.0.1, SVG Export Plug-In . SVG Version: 6.00 Build 0)  -->
<svg version="1.1" id="Слой_1" xmlns="http://www.w3.org/2000/svg" xmlns:xlink="http://www.w3.org/1999/xlink" x="0px" y="0px"
	 viewBox="-199 188 100 125" style="enable-background:new -199 188 100 125;" xml:space="preserve">
<style type="text/css">
	.st0{fill:#69B53D;}
</style>
<path d="M-142,227h-27c-0.6,0-1,0.4-1,1v23c0,0.6,0.4,1,1,1h27c0.6,0,1-0.4,1-1v-23C-141,227.4-141.4,227-142,227z M-143,250h-25
	v-21h25V250z"/>
<path d="M-125,220.1V218c0-0.6-0.4-1-1-1h-10c-0.6,0-1,0.4-1,1v2h-6.4l-3.7-6.5c-0.2-0.3-0.5-0.5-0.9-0.5h-15
	c-0.4,0-0.7,0.2-0.9,0.5l-3.7,6.5h-4.4c-3.9,0-7,3.1-7,7v1v4v4v4v4v4v1c0,3.9,3.1,7,7,7h46c3.9,0,7-3.1,7-7v-23
	C-119,222.7-121.4,220.4-125,220.1z M-135,219h8v1h-8V219z M-177,229h3v2h-3V229z M-177,237h3v2h-3V237z M-177,245h3v2h-3V245z
	 M-121,249c0,2.8-2.2,5-5,5h-46c-2.8,0-5-2.2-5-5h4c0.6,0,1-0.4,1-1v-4c0-0.6-0.4-1-1-1h-4v-2h4c0.6,0,1-0.4,1-1v-4c0-0.6-0.4-1-1-1
	h-4v-2h4c0.6,0,1-0.4,1-1v-4c0-0.6-0.4-1-1-1h-4c0-2.8,2.2-5,5-5h5c0.4,0,0.7-0.2,0.9-0.5l3.7-6.5h13.8l3.7,6.5
	c0.2,0.3,0.5,0.5,0.9,0.5h8h10c2.4,0,5,1.1,5,4V249z"/>
<path d="M-131,230c-4.4,0-8,3.6-8,8s3.6,8,8,8c4.4,0,8-3.6,8-8S-126.6,230-131,230z M-131,244c-3.3,0-6-2.7-6-6s2.7-6,6-6s6,2.7,6,6
	S-127.7,244-131,244z"/>
<path class="st0" d="M-131,237c0.6,0,1-0.4,1-1v-2c0-0.6-0.4-1-1-1s-1,0.4-1,1v2C-132,236.6-131.6,237-131,237z"/>
<path class="st0" d="M-131,239c-0.6,0-1,0.4-1,1v2c0,0.6,0.4,1,1,1s1-0.4,1-1v-2C-130,239.4-130.4,239-131,239z"/>
<path class="st0" d="M-133,237h-2c-0.6,0-1,0.4-1,1s0.4,1,1,1h2c0.6,0,1-0.4,1-1S-132.4,237-133,237z"/>
<path class="st0" d="M-129,237c-0.6,0-1,0.4-1,1s0.4,1,1,1h2c0.6,0,1-0.4,1-1s-0.4-1-1-1H-129z"/>
<path d="M-160,222h9c0.6,0,1-0.4,1-1v-4c0-0.6-0.4-1-1-1h-9c-0.6,0-1,0.4-1,1v4C-161,221.6-160.6,222-160,222z M-159,218h7v2h-7V218
	z"/>
<path d="M-133,249h-4c-0.6,0-1,0.4-1,1s0.4,1,1,1h4c0.6,0,1-0.4,1-1S-132.4,249-133,249z"/>
<path class="st0" d="M-125,249h-4c-0.6,0-1,0.4-1,1s0.4,1,1,1h4c0.6,0,1-0.4,1-1S-124.4,249-125,249z"/>
<path d="M-159,241c0.3,0,0.5-0.1,0.7-0.3l5-5c0.4-0.4,0.4-1,0-1.4c-0.4-0.4-1-0.4-1.4,0l-5,5c-0.4,0.4-0.4,1,0,1.4
	C-159.5,240.9-159.3,241-159,241z"/>
<path d="M-154.7,240.3l-2,2c-0.4,0.4-0.4,1,0,1.4c0.2,0.2,0.5,0.3,0.7,0.3s0.5-0.1,0.7-0.3l2-2c0.4-0.4,0.4-1,0-1.4
	C-153.7,239.9-154.3,239.9-154.7,240.3z"/>
<path d="M-152.7,239.7c0.2,0.2,0.5,0.3,0.7,0.3s0.5-0.1,0.7-0.3l1-1c0.4-0.4,0.4-1,0-1.4c-0.4-0.4-1-0.4-1.4,0l-1,1
	C-153.1,238.7-153.1,239.3-152.7,239.7z"/>
</svg>
