<?xml version="1.0" encoding="utf-8"?>
<!-- Generator: Adobe Illustrator 19.0.1, SVG Export Plug-In . SVG Version: 6.00 Build 0)  -->
<svg version="1.1" id="Слой_1" xmlns="http://www.w3.org/2000/svg" xmlns:xlink="http://www.w3.org/1999/xlink" x="0px" y="0px"
	 viewBox="-199 186.8 100 100" style="enable-background:new -199 186.8 100 100;" xml:space="preserve">
<path d="M-149,282.3l1-0.4l45.4-18.9v-60.4l-46.4,19.3l-46.4-19.3v60.4l45.4,18.9L-149,282.3z M-148,223.6l43.4-18.1v56.1
	l-43.4,18.1V223.6z M-193.4,205.5l43.4,18.1v56.1l-43.4-18.1V205.5z"/>
<polygon points="-113.1,201.6 -113.9,199.7 -149,214.3 -183.8,199.8 -184.6,201.7 -149,216.5 "/>
<polygon points="-122.7,198.1 -123.5,196.2 -149,206.8 -174.7,196.1 -175.5,198 -149,209 "/>
<polygon points="-132.7,194.7 -133.4,192.9 -149,199.3 -164.9,192.7 -165.7,194.6 -149,201.5 "/>
<path d="M-145.1,274.3l37.6-15.7v-47.8l-37.6,15.7V274.3z M-143.1,227.8l33.6-14v43.5l-33.6,14V227.8z"/>
</svg>
