<?xml version="1.0" encoding="utf-8"?>
<!-- Generator: Adobe Illustrator 19.0.1, SVG Export Plug-In . SVG Version: 6.00 Build 0)  -->
<svg version="1.1" id="Слой_1" xmlns="http://www.w3.org/2000/svg" xmlns:xlink="http://www.w3.org/1999/xlink" x="0px" y="0px"
	 viewBox="161 186.8 100 100" style="enable-background:new 161 186.8 100 100;" xml:space="preserve">
<g>
	<path d="M211.5,281l1-0.4l45.5-18.9v-60.4l-46.5,19.3L165,201.3v60.4l45.4,18.9L211.5,281z M212.5,222.4l43.4-18.1v56.1l-43.4,18.1
		V222.4z M167,204.3l43.4,18.1v56.1L167,260.4V204.3z"/>
	<polygon points="247.3,200.4 246.6,198.5 211.5,213.1 176.6,198.6 175.9,200.5 211.5,215.3 	"/>
	<polygon points="237.7,196.9 237,195 211.5,205.6 185.8,194.9 185,196.8 211.5,207.8 	"/>
	<polygon points="227.8,193.5 227,191.7 211.5,198.1 195.5,191.5 194.7,193.4 211.5,200.3 	"/>
</g>
</svg>
