<svg width="34" height="34" viewBox="0 0 34 34" fill="none" xmlns="http://www.w3.org/2000/svg">
<rect width="34" height="34" fill="black" fill-opacity="0"/>
<rect width="34" height="34" fill="black" fill-opacity="0"/>
<rect width="34" height="34" fill="black" fill-opacity="0"/>
<path d="M9.9772 16.0011C9.50838 15.5328 8.74653 15.5328 8.27771 16.0011C7.80888 16.4694 7.80888 17.2303 8.27771 17.6986L13.8157 23.2299C14.0501 23.464 14.3431 23.5811 14.6655 23.5811C14.6948 23.5811 14.6948 23.5811 14.7241 23.5811C15.0464 23.5518 15.3687 23.4055 15.6031 23.1421L29.4628 6.54806C29.873 6.05053 29.8144 5.28961 29.3163 4.85061C28.8182 4.44088 28.0563 4.49941 27.6168 4.99694L14.5776 20.5959L9.9772 16.0011V16.0011Z" fill="white"/>
<path d="M25.9759 2.59715C19.2365 -1.61721 10.5925 -0.622154 4.96663 4.997C-1.65554 11.6112 -1.65554 22.4105 4.96663 29.0247C8.27772 32.3318 12.6437 34 16.9803 34C21.317 34 25.6829 32.3318 28.994 29.0247C34.6492 23.3763 35.6162 14.7134 31.3674 7.98217C31.0158 7.42611 30.2833 7.25051 29.7265 7.60171C29.1698 7.9529 28.994 8.68456 29.3456 9.24062C33.0083 15.0354 32.1586 22.469 27.2945 27.3273C21.61 33.0049 12.3213 33.0049 6.63683 27.3273C0.952304 21.6496 0.952304 12.3721 6.63683 6.69445C11.5009 1.86549 18.9142 1.01676 24.716 4.61653C25.2727 4.96773 26.0052 4.79213 26.3568 4.23607C26.7085 3.68001 26.5327 2.94835 25.9759 2.59715V2.59715Z" fill="white"/>
</svg>
