<?xml version="1.0" encoding="utf-8"?>
<!-- Generator: Adobe Illustrator 19.0.1, SVG Export Plug-In . SVG Version: 6.00 Build 0)  -->
<svg version="1.1" id="Слой_1" xmlns="http://www.w3.org/2000/svg" xmlns:xlink="http://www.w3.org/1999/xlink" x="0px" y="0px"
	 viewBox="0 0 70 70" style="enable-background:new 0 0 70 70;" xml:space="preserve">
<style type="text/css">
	.st0{fill:#010202;}
	.st1{fill:#6AB53F;}
	.st2{clip-path:url(#SVGID_2_);}
	.st3{fill:#FFFFFF;}
</style>
<g>
	<path class="st0" d="M19.2,61.3h31.7c1.2,0,2.3-1,2.3-2.3V13.6c0-1.2-1-2.3-2.3-2.3H19.2c-1.2,0-2.3,1-2.3,2.3V59
		C16.9,60.3,17.9,61.3,19.2,61.3z M18.6,13.6c0-0.3,0.3-0.6,0.6-0.6h31.7c0.3,0,0.6,0.3,0.6,0.6V59c0,0.3-0.3,0.6-0.6,0.6H19.2
		c-0.3,0-0.6-0.3-0.6-0.6L18.6,13.6L18.6,13.6z"/>
	<path class="st0" d="M36.4,19.9h9.8c0.5,0,0.8-0.4,0.8-0.8c0-0.5-0.4-0.8-0.8-0.8h-9.8c-0.5,0-0.8,0.4-0.8,0.8
		C35.6,19.6,36,19.9,36.4,19.9z"/>
	<path class="st0" d="M36.4,26.4h9.8c0.5,0,0.8-0.4,0.8-0.8s-0.4-0.8-0.8-0.8h-9.8c-0.5,0-0.8,0.4-0.8,0.8S36,26.4,36.4,26.4z"/>
	<path class="st0" d="M46.2,31.1H23.8c-0.5,0-0.8,0.4-0.8,0.8s0.4,0.8,0.8,0.8h22.5c0.5,0,0.8-0.4,0.8-0.8S46.7,31.1,46.2,31.1z"/>
	<path class="st0" d="M46.2,37.6H23.8c-0.5,0-0.8,0.4-0.8,0.8s0.4,0.8,0.8,0.8h22.5c0.5,0,0.8-0.4,0.8-0.8S46.7,37.6,46.2,37.6z"/>
	<path class="st0" d="M46.2,44H23.8c-0.5,0-0.8,0.4-0.8,0.8s0.4,0.8,0.8,0.8h22.5c0.5,0,0.8-0.4,0.8-0.8S46.7,44,46.2,44z"/>
	<path class="st0" d="M46.2,50.5H23.8c-0.5,0-0.8,0.4-0.8,0.8c0,0.5,0.4,0.8,0.8,0.8h22.5c0.5,0,0.8-0.4,0.8-0.8
		C47.1,50.8,46.7,50.5,46.2,50.5z"/>
	<path class="st1" d="M23.3,28.4h8.5c0.5,0,0.8-0.4,0.8-0.8V17.4c0-0.5-0.4-0.8-0.8-0.8h-8.5c-0.5,0-0.8,0.4-0.8,0.8v10.1
		C22.5,28,22.8,28.4,23.3,28.4z M24.1,18.3h6.8v8.5h-6.8V18.3z"/>
</g>
</svg>
