<?xml version="1.0" encoding="utf-8"?>
<!-- Generator: Adobe Illustrator 19.0.1, SVG Export Plug-In . SVG Version: 6.00 Build 0)  -->
<svg version="1.1" id="Слой_1" xmlns="http://www.w3.org/2000/svg" xmlns:xlink="http://www.w3.org/1999/xlink" x="0px" y="0px"
	 viewBox="-199 188 100 125" style="enable-background:new -199 188 100 125;" xml:space="preserve">
<style type="text/css">
	.st0{fill:#69B53D;}
</style>
<g>
	<g>
		<g>
			<path d="M-113.3,201.4h-7.5V194c0-0.5-0.4-1-1-1h-62.9c-0.5,0-1,0.4-1,1v79.6c0,0.5,0.4,1,1,1h7.5v7.4c0,0.5,0.4,1,1,1h40
				c0.1,0,0.2,0,0.3-0.1c0.1,0,0.1,0,0.2-0.1c0,0,0,0,0.1,0l0.1-0.1l22.9-22.9l0,0c0,0,0,0,0.1-0.1c0,0,0,0,0-0.1c0,0,0,0,0-0.1
				l0.1-0.1c0-0.1,0.1-0.2,0.1-0.4v-56.6C-112.4,201.9-112.8,201.4-113.3,201.4z M-177.2,202.4v70.2h-6.5v-77.7h61v6.5h-53.5
				C-176.8,201.4-177.2,201.9-177.2,202.4z M-135.3,279.7v-19.6h19.6L-135.3,279.7z M-114.3,258.1h-22c-0.5,0-1,0.4-1,1v22h-38
				v-77.7h61V258.1z"/>
		</g>
	</g>
	<g>
		<g>
			<path class="st0" d="M-146.4,235.6h-21c-0.5,0-1,0.4-1,1v17.6c0,0.5,0.4,1,1,1h21c0.5,0,1-0.4,1-1v-17.6
				C-145.4,236.1-145.9,235.6-146.4,235.6z M-166.4,237.6h19v8.6l-4.4-4.4c-0.4-0.4-1-0.4-1.4,0l-6.6,6.6l-2-2c-0.4-0.4-1-0.4-1.4,0
				l-3.3,3.3v-12.1H-166.4z M-147.4,253.2h-19v-0.7l4-4l2,2c0.4,0.4,1,0.4,1.4,0l6.6-6.6l5,5V253.2z"/>
		</g>
		<g>
			<path class="st0" d="M-161.2,245.1c-1.6,0-3-1.3-3-3c0-1.6,1.3-3,3-3c1.6,0,3,1.3,3,3C-158.3,243.8-159.6,245.1-161.2,245.1z
				 M-161.2,241.1c-0.6,0-1,0.5-1,1s0.5,1,1,1c0.6,0,1-0.5,1-1S-160.7,241.1-161.2,241.1z"/>
		</g>
	</g>
	<g>
		<path d="M-120.2,240.5h-19.9c-0.5,0-1-0.4-1-1c0-0.5,0.4-1,1-1h19.9c0.5,0,1,0.4,1,1C-119.3,240-119.7,240.5-120.2,240.5z"/>
	</g>
	<g>
		<path d="M-120.2,245.7h-19.9c-0.5,0-1-0.4-1-1c0-0.6,0.4-1,1-1h19.9c0.5,0,1,0.4,1,1C-119.2,245.3-119.7,245.7-120.2,245.7z"/>
	</g>
	<g>
		<path d="M-125.8,251.1h-14.3c-0.5,0-1-0.4-1-1c0-0.5,0.4-1,1-1h14.3c0.5,0,1,0.4,1,1C-124.8,250.6-125.3,251.1-125.8,251.1z"/>
	</g>
	<g>
		<path d="M-147.5,263.3h-19.9c-0.5,0-1-0.4-1-1c0-0.6,0.4-1,1-1h19.9c0.5,0,1,0.4,1,1C-146.5,262.9-146.9,263.3-147.5,263.3z"/>
	</g>
	<g>
		<path d="M-147.5,268.6h-19.9c-0.5,0-1-0.4-1-1c0-0.5,0.4-1,1-1h19.9c0.5,0,1,0.4,1,1S-146.9,268.6-147.5,268.6z"/>
	</g>
	<g>
		<path d="M-153.1,273.9h-14.3c-0.5,0-1-0.4-1-1s0.4-1,1-1h14.3c0.5,0,1,0.4,1,1S-152.5,273.9-153.1,273.9z"/>
	</g>
	<g>
		<g>
			<path d="M-144.8,208.2c-3,0-5.5,2.5-5.5,5.6c0,3.1,2.5,5.6,5.5,5.6s5.5-2.5,5.5-5.6C-139.3,210.7-141.8,208.2-144.8,208.2z
				 M-145.2,213.8c0-0.4,0.2-0.7,0.4-0.7s0.4,0.3,0.4,0.7c0,0.4-0.2,0.7-0.4,0.7S-145.2,214.2-145.2,213.8z M-144.8,217.5
				c-0.5,0-0.9-0.1-1.3-0.3c0.3-0.5,0.8-0.8,1.3-0.8s1,0.3,1.3,0.8C-143.9,217.4-144.3,217.5-144.8,217.5z M-142,216
				c-0.2-0.3-0.5-0.6-0.8-0.8c0.2-0.4,0.3-0.9,0.3-1.4c0-1.5-1.1-2.7-2.4-2.7c-1.3,0-2.4,1.2-2.4,2.7c0,0.5,0.1,1,0.3,1.4
				c-0.3,0.2-0.6,0.5-0.8,0.8c-0.5-0.6-0.7-1.4-0.7-2.2c0-2,1.6-3.7,3.5-3.7c1.9,0,3.5,1.6,3.5,3.7
				C-141.2,214.6-141.5,215.4-142,216z"/>
		</g>
	</g>
	<g>
		<path d="M-125.8,224.4h-37.4c-0.5,0-1-0.4-1-1c0-0.5,0.4-1,1-1h37.4c0.5,0,1,0.4,1,1C-124.8,224-125.3,224.4-125.8,224.4z"/>
	</g>
	<g>
		<path d="M-135.2,228.9h-18.6c-0.5,0-1-0.4-1-1c0-0.6,0.4-1,1-1h18.6c0.5,0,1,0.4,1,1C-134.2,228.5-134.7,228.9-135.2,228.9z"/>
	</g>
</g>
</svg>
