<?xml version="1.0" encoding="utf-8"?>
<!-- Generator: Adobe Illustrator 19.0.1, SVG Export Plug-In . SVG Version: 6.00 Build 0)  -->
<svg version="1.1" id="Слой_1" xmlns="http://www.w3.org/2000/svg" xmlns:xlink="http://www.w3.org/1999/xlink" x="0px" y="0px"
	 viewBox="-199 188 100 125" style="enable-background:new -199 188 100 125;" xml:space="preserve">
<style type="text/css">
	.st0{fill:#69B53D;}
</style>
<g>
	<path d="M-104.6,220c-8.8-8.8-17.6-17.6-26.4-26.4c-0.8-0.8-2.2-0.8-3,0c-15,14.9-29.9,29.8-44.7,44.7c-2,2,1.1,5,3,3
		c14.4-14.4,28.8-28.8,43.2-43.2c7.7,7.9,15.5,15.7,23.3,23.5c-13.8,13.8-27.7,27.7-41.6,41.6c-0.7-0.7-1.5-1.5-2.2-2.2
		c-0.4-0.4-0.9-0.6-1.4-0.6h-0.1c0,0,0,0-0.1,0c-0.5,0-1,0.2-1.4,0.6c-5.7,5.6-11.3,11.2-17,16.8c-5.2-5.3-10.5-10.6-15.8-15.8
		c5.1-5.1,10.2-10.2,15.4-15.4c4.4,4.4,8.8,8.8,13.2,13.2c0,0,0,0,0.1,0c0.1,0.1,0.2,0.2,0.3,0.3c0,0,0,0,0.1,0
		c0.1,0.1,0.2,0.1,0.3,0.1h0.1c0.1,0,0.1,0,0.2,0.1c0,0,0,0,0.1,0c0.1,0,0.3,0,0.4,0c0,0,0,0,0.1,0l0,0c0,0,0,0,0.1,0
		c1,0,1.6-0.6,1.8-1.3c0.3-0.7,0.3-1.6-0.3-2.3l0,0l0,0c-5.3-4.8-10.2-9.8-15.1-14.7c0,0,0,0-0.1,0c-0.1-0.1-0.2-0.2-0.3-0.3
		c0,0,0,0-0.1,0c-0.1-0.1-0.2-0.1-0.3-0.1c-0.1,0-0.2-0.1-0.3-0.1c0,0,0,0-0.1,0c-0.1,0-0.3,0-0.4,0c0,0,0,0-0.1,0l0,0
		c0,0,0,0-0.1,0c-0.6,0-1,0.2-1.4,0.6c0,0,0,0-0.1,0c-6.1,6.1-12.3,12.3-18.4,18.4c-0.8,0.8-0.8,2.2,0,3
		c6.3,6.3,12.6,12.6,18.9,18.9c0.8,0.8,2.2,0.8,3,0c5.6-5.6,11.3-11.3,16.9-16.9c0.7,0.7,1.5,1.5,2.2,2.2c0.8,0.8,2.2,0.8,3,0
		c15.3-14.8,30.2-29.7,45.1-44.6C-103.8,222.3-103.8,220.9-104.6,220z"/>
	<path d="M-169.8,254.6c-1.1-1.1-2.1-2.1-3.2-3.2c-0.6-0.6-1.7-0.6-2.3,0c-2.3,2.3-4.6,4.6-6.8,6.8c-0.6,0.6-0.6,1.7,0,2.3
		c1.1,1.1,2.1,2.1,3.2,3.2c0.3,0.3,0.7,0.5,1.1,0.5c0,0,0,0,0.1,0c0,0,0,0,0.1,0c0.4,0,0.7-0.1,1.1-0.5c2.3-2.3,4.6-4.6,6.8-6.8
		C-169.2,256.3-169.2,255.2-169.8,254.6z M-177.8,260.3c-0.3-0.3-0.6-0.6-0.9-0.9c1.5-1.5,3-3,4.6-4.6c0.3,0.3,0.6,0.6,0.9,0.9
		C-174.7,257.3-176.3,258.8-177.8,260.3z"/>
	<path d="M-171.6,271.1c0.3,0.3,0.7,0.5,1.1,0.5c0,0,0,0,0.1,0c0,0,0,0,0.1,0c0.4,0,0.7-0.1,1.1-0.5c2.3-2.3,4.6-4.6,6.8-6.8
		c0.6-0.6,0.6-1.7,0-2.3c-1.1-1.1-2.1-2.1-3.2-3.2c-0.6-0.6-1.7-0.6-2.3,0c-2.3,2.3-4.6,4.6-6.8,6.8c-0.6,0.6-0.6,1.7,0,2.3
		C-173.7,269-172.6,270-171.6,271.1z M-166.7,262.2c0.3,0.3,0.6,0.6,0.9,0.9c-1.5,1.5-3,3-4.6,4.6c-0.3-0.3-0.6-0.6-0.9-0.9
		C-169.8,265.3-168.3,263.7-166.7,262.2z"/>
	<path class="st0" d="M-154.6,246.6c3.5-3.5,7.1-7.1,10.6-10.6c-0.1,2-0.1,4,0.1,5.9c0,0.2,0,0.4,0,0.6c-0.4,0.3-0.8,0.7-0.9,0.9
		c-1.3,1.3-2.6,2.6-3.9,3.9c-2,2,1.1,5,3,3c2.1-2.1,5.9-4.5,6.1-7.6c0.3-3.6,0-7.4,0-11.1c3.7-3.7,7.5-7.5,11.2-11.2
		c1.1,0.2,2.4-0.1,3.2-1c1.4-1.4,1.4-3.8,0-5.2c-1.4-1.4-3.8-1.4-5.2,0c-0.9,0.9-1.2,2.1-1,3.2c-2,2-4,4-6,6c-3.5,0-7,0-10.5,0
		c-3.4,0-4.8,2.2-7.2,4.6c-2,2,1.1,5,3,3c1-1,2.5-2,3.3-3.2c0.6,0,1.4-0.1,1.9-0.1c1.7,0,3.5,0,5.2,0c-5.3,5.3-10.7,10.7-16,16
		C-159.6,245.5-156.5,248.6-154.6,246.6z"/>
</g>
</svg>
