<?xml version="1.0" encoding="utf-8"?>
<!-- Generator: Adobe Illustrator 19.0.1, SVG Export Plug-In . SVG Version: 6.00 Build 0)  -->
<svg version="1.1" id="Слой_1" xmlns="http://www.w3.org/2000/svg" xmlns:xlink="http://www.w3.org/1999/xlink" x="0px" y="0px"
	 viewBox="0 0 70 70" style="enable-background:new 0 0 70 70;" xml:space="preserve">
<style type="text/css">
	.st0{fill:#010202;}
	.st1{fill:#69B53E;}
</style>
<g>
	<path class="st0" d="M49.8,37.6H19.4c-2.1,0-3.8,1.7-3.8,3.8v2.5c0,2.1,1.7,3.8,3.8,3.8h0.1v20.9c0,0.8,0.7,1.5,1.5,1.5h27
		c0.8,0,1.5-0.7,1.5-1.5V47.7h0.1c2.1,0,3.8-1.7,3.8-3.8v-2.5C53.6,39.3,51.9,37.6,49.8,37.6z M50.5,43.9c0,0.4-0.3,0.7-0.7,0.7
		h-5.8c-0.8,0-1.5,0.7-1.5,1.5c0,0.8,0.7,1.5,1.5,1.5h2.6v19.4h-5.6V54.8c0-0.8-0.7-1.5-1.5-1.5c-0.8,0-1.5,0.7-1.5,1.5v12.3h-6.5
		v-1.8c0-0.8-0.7-1.5-1.5-1.5s-1.5,0.7-1.5,1.5v1.8h-5.6V47.7h17.1c0.8,0,1.5-0.7,1.5-1.5c0-0.8-0.7-1.5-1.5-1.5H19.4
		c-0.4,0-0.7-0.3-0.7-0.7v-2.5c0-0.4,0.3-0.7,0.7-0.7h30.3c0.4,0,0.7,0.3,0.7,0.7V43.9z"/>
	<path class="st1" d="M24.1,23.7l-2,9.1c-0.2,0.9,0,1.8,0.6,2.6c0.9,1.1,2.7,1.5,3.9,0.7l8.1-4.8l8.1,4.8c0.5,0.3,1,0.4,1.6,0.4
		c0.9,0,1.8-0.4,2.4-1.2c0.6-0.7,0.8-1.7,0.6-2.6l-2-9.1l7-6.2c0.9-0.8,1.3-2.1,0.9-3.2c-0.4-1.2-1.4-2-2.6-2.1l-9.3-0.9l-3.7-8.6
		c-0.5-1.1-1.6-1.8-2.8-1.8s-2.3,0.7-2.8,1.8l-3.7,8.6l-9.3,0.9c-1.2,0.1-2.2,0.9-2.6,2.1c-0.4,1.2,0,2.4,0.9,3.2L24.1,23.7z
		 M29.3,14.3c0.6-0.1,1-0.4,1.3-0.9l4-9.4l4.1,9.4c0.2,0.5,0.7,0.9,1.3,0.9l10.2,0.9L42.4,22c-0.4,0.4-0.6,0.9-0.5,1.5l2.2,10
		l-8.8-5.2c-0.5-0.3-1.1-0.3-1.6,0L25,33.5l2.2-10c0.1-0.5-0.1-1.1-0.5-1.5l-7.7-6.7L29.3,14.3z"/>
	<path class="st0" d="M29.8,53.2c-0.8,0-1.5,0.7-1.5,1.5V61c0,0.8,0.7,1.5,1.5,1.5s1.5-0.7,1.5-1.5v-6.3
		C31.4,53.9,30.7,53.2,29.8,53.2z"/>
</g>
</svg>
