<?xml version="1.0" encoding="utf-8"?>
<!-- Generator: Adobe Illustrator 19.0.1, SVG Export Plug-In . SVG Version: 6.00 Build 0)  -->
<svg version="1.1" id="Слой_1" xmlns="http://www.w3.org/2000/svg" xmlns:xlink="http://www.w3.org/1999/xlink" x="0px" y="0px"
	 viewBox="0 0 70 70" style="enable-background:new 0 0 70 70;" xml:space="preserve">
<style type="text/css">
	.st0{fill:#010202;}
	.st1{fill:#6AB53F;}
	.st2{clip-path:url(#SVGID_2_);}
	.st3{fill:#FFFFFF;}
</style>
<g>
	<defs>
		<rect id="SVGID_1_" x="-91.5" y="9.7" width="74.2" height="51.4"/>
	</defs>
	<clipPath id="SVGID_2_">
		<use xlink:href="#SVGID_1_"  style="overflow:visible;"/>
	</clipPath>
	<g class="st2">
		<path class="st0" d="M-101.7,63.3h12.8h44H2.7c0.5,0,0.9-0.4,0.9-0.9V1.9C3.6,1.4,3.2,1,2.7,1h-104.4c-0.5,0-0.9,0.4-0.9,0.9v60.5
			C-102.7,62.9-102.2,63.3-101.7,63.3z M-100.8,57.8v-3.7h3.7v3.7H-100.8z M-97.2,19.3h-3.7v-3.7h3.7V19.3z M-97.2,21.1v3.7h-3.7
			v-3.7H-97.2z M-97.2,26.6v3.7h-3.7v-3.7H-97.2z M-97.2,32.1v3.7h-3.7v-3.7C-100.8,32.1-97.2,32.1-97.2,32.1z M-97.2,37.6v3.7h-3.7
			v-3.7H-97.2z M-97.2,43.1v3.7h-3.7v-3.7H-97.2z M-97.2,48.6v3.7h-3.7v-3.7H-97.2z M-97.2,13.8h-3.7v-3.7h3.7V13.8z M-100.8,59.6
			h4.6c0.5,0,0.9-0.4,0.9-0.9V9.2c0-0.5-0.4-0.9-0.9-0.9h-4.6V6.4h86.1v55H-44v-1c0-3.5-1.9-4.9-5.1-6.1c-0.1,0-0.3-0.1-0.4-0.1
			V29.3c0-4-1.1-8.1-3.5-11.4c0-0.1-0.1-0.2-0.2-0.3h0c-2.7-3.4-7.1-5.7-13.6-5.7c-14.3,0-17.4,12.6-17.4,17.4v24.9
			c-0.1,0-0.3,0.1-0.4,0.1c-3.2,1.2-5.1,2.6-5.1,6.1v1h-11L-100.8,59.6L-100.8,59.6z M1.8,6.4v12.8h-14.7V6.4
			C-12.9,6.4,1.8,6.4,1.8,6.4z M-73.4,49.5v-2.2c2.4,2,4.8,3.2,6.4,3.2c1.7,0,4.1-1.2,6.4-3.3v2.3c0,2.7,2.7,4.1,5.5,5v6.9h-23.8
			v-6.9C-76,53.6-73.4,52.2-73.4,49.5z M-58.7,49.5v-4.1c3-3.3,5.5-7.8,5.5-12.6c0-0.5-0.4-0.9-0.9-0.9s-0.9,0.4-0.9,0.9
			c0,4.6-2.4,8.7-5.2,11.6c0,0-0.1,0.1-0.1,0.1c-2.4,2.5-5.1,4.1-6.6,4.1c-2.9,0-10.8-6-11.8-13.9c-0.1-0.5-0.5-0.8-1-0.8
			c-0.5,0.1-0.8,0.5-0.8,1c0.5,4.2,2.8,7.8,5.4,10.6v4c0,2.2-4.3,3.4-7.1,4.1c-0.1,0-0.1,0-0.2,0V33.8c2.8-0.5,12.4-2.7,20.9-7.9
			c1.3,1.5,4.9,4.9,10.3,6.1v21.8c-0.1,0-0.1,0-0.2,0C-54.4,52.9-58.7,51.7-58.7,49.5z M-51.4,29.4v0.7c-4.4-1-7.4-3.8-8.7-5.2
			c2.2-1.5,4.3-3.1,6.1-5C-51.7,23.4-51.4,27.5-51.4,29.4z M-82.5,31.9v-2.5c0-4.3,2.8-15.6,15.6-15.6c5.9,0,9.5,2,11.8,4.6
			C-63.5,27.3-78.4,31-82.5,31.9z M-88,60.5c0-2.3,0.8-3.2,3.9-4.4c0.6-0.2,1.4-0.4,2.3-0.7c0.4-0.1,0.8-0.2,1.2-0.3v6.3H-88
			L-88,60.5L-88,60.5z M-53.2,61.4v-6.3c0.4,0.1,0.8,0.2,1.2,0.3c0.9,0.2,1.7,0.5,2.3,0.7c3,1.1,3.9,2.1,3.9,4.4v1L-53.2,61.4
			L-53.2,61.4z M-12.9,61.4V21.1H1.8v40.3H-12.9L-12.9,61.4z M-98.1,2.8c-0.5,0-0.9,0.4-0.9,0.9s0.4,0.9,0.9,0.9
			c0.5,0,0.9-0.4,0.9-0.9S-97.5,2.8-98.1,2.8h3.7c-0.5,0-0.9,0.4-0.9,0.9s0.4,0.9,0.9,0.9c0.5,0,0.9-0.4,0.9-0.9s-0.4-0.9-0.9-0.9
			h3.6c-0.5,0-0.9,0.4-0.9,0.9s0.4,0.9,0.9,0.9s0.9-0.4,0.9-0.9s-0.4-0.9-0.9-0.9H1.7v1.8h-92.4h-3.7H-98h-2.8V2.8H-98.1z"/>
	</g>
</g>
<g>
	<path class="st0" d="M34.5,61.5c-13.8,0-25-11.3-25-25c0-13.8,11.3-25,25-25c13.8,0,25,11.3,25,25C59.5,50.3,48.4,61.5,34.5,61.5z
		 M34.5,13.7c-12.6,0-22.8,10.2-22.8,22.8s10.2,22.8,22.8,22.8s22.8-10.2,22.8-22.8S47.1,13.7,34.5,13.7z"/>
	<path class="st0" d="M34.5,53.8c-7.7,0-14-6.3-14-14c0-0.6,0.5-1.1,1.1-1.1h25.8c0.6,0,1.1,0.5,1.1,1.1
		C48.5,47.6,42.3,53.8,34.5,53.8z M22.8,41c0.6,6,5.6,10.7,11.7,10.7S45.7,46.9,46.2,41H22.8z"/>
	<path class="st1" d="M29,31.9c-0.6,0-1.1-0.5-1.1-1.1c0-1.7-1.5-3.1-3.5-3.1S21,29.1,21,30.8c0,0.6-0.5,1.1-1.1,1.1
		c-0.6,0-1.1-0.5-1.1-1.1c0-2.9,2.6-5.3,5.7-5.3s5.7,2.4,5.7,5.3C30.1,31.4,29.7,31.9,29,31.9z"/>
	<path class="st1" d="M49.2,31.9c-0.6,0-1.1-0.5-1.1-1.1c0-1.7-1.5-3.1-3.5-3.1s-3.5,1.3-3.5,3.1c0,0.6-0.5,1.1-1.1,1.1
		c-0.6,0-1.1-0.5-1.1-1.1c0-2.9,2.6-5.3,5.7-5.3s5.7,2.4,5.7,5.3C50.3,31.4,49.8,31.9,49.2,31.9z"/>
</g>
</svg>
