<?xml version="1.0" encoding="utf-8"?>
<!-- Generator: Adobe Illustrator 19.0.1, SVG Export Plug-In . SVG Version: 6.00 Build 0)  -->
<svg version="1.1" id="Слой_1" xmlns="http://www.w3.org/2000/svg" xmlns:xlink="http://www.w3.org/1999/xlink" x="0px" y="0px"
	 viewBox="281 186.8 100 100" style="enable-background:new 281 186.8 100 100;" xml:space="preserve">
<g>
	<path d="M281.4,253.8l32.6,13.6l0,0c0.2,0.1,0.3,0.1,0.5,0l0,0l32.7-13.6c0.3-0.1,0.4-0.4,0.4-0.7v-41.8c0-0.4-0.3-0.7-0.7-0.7
		c-0.1,0-0.2,0-0.3,0.1l-32.4,13.5L282,210.6c-0.4-0.2-0.8,0-0.9,0.4c0,0.1-0.1,0.2-0.1,0.3v41.8C281,253.4,281.2,253.7,281.4,253.8
		z M346.3,252.6l-31.2,13v-40.3l31.2-13V252.6z M282.4,212.4l31.2,13v40.3l-31.2-13V212.4z"/>
	<path d="M380.4,267.8c-0.1,0-0.2,0-0.3-0.1l-33.4-13.9c-0.3-0.1-0.5-0.4-0.5-0.7l0-41.7c0-0.3,0.1-0.5,0.4-0.7
		c0.2-0.2,0.5-0.2,0.8-0.1l33.3,13.5c0.3,0.1,0.5,0.4,0.5,0.7l0,42c0,0.3-0.1,0.5-0.4,0.7C380.7,267.7,380.6,267.8,380.4,267.8z
		 M347.9,252.5l31.8,13.2l0-40.2l-31.7-12.9L347.9,252.5z"/>
</g>
</svg>
