<?xml version="1.0" encoding="utf-8"?>
<!-- Generator: Adobe Illustrator 19.0.1, SVG Export Plug-In . SVG Version: 6.00 Build 0)  -->
<svg version="1.1" id="Слой_1" xmlns="http://www.w3.org/2000/svg" xmlns:xlink="http://www.w3.org/1999/xlink" x="0px" y="0px"
	 viewBox="0 196.3 92 96" style="enable-background:new 0 196.3 92 96;" xml:space="preserve">
<style type="text/css">
	.st0{fill:#69B53D;}
</style>
<g transform="translate(-7.5, -6.509)">
	<path d="M85.6,202.8c0.9,0.6,0.7,0.2,0.9,1v12.1c0.4,0,0.2,0,0.6,0c0.4,0,0.6,0,0.8,0c0.1,0,2,0,3.6,0c0.6,0,1,0.4,1,1v1h2
		c0.6,0,1,0.4,1,1v61c0,0.6-0.4,1-1,1c-10.3,0.1-20.8,0.6-30.8,3.1c-2.5,0.6-8.3,1.9-9.2,4.9l0,0c0,0.6-0.4,1-1,1h-4
		c-0.6,0-1-0.4-1-1l0,0c0-4-18.1-8-40-8c-0.6,0-1-0.4-1-1v-61c0-0.6,0.4-1,1-1h2v-1c0-0.6,0.4-1,1-1c10.6,0.2,21.7,0.9,31.6,5
		c3.5,1.5,5.6,2.5,8,5.6c5.7-11.9,22.4-19.1,34.1-23.5L85.6,202.8z M93.5,219.8h-1v57c0,0.6-0.4,1-1,1c-10.1,0.2-20.5,0.8-30.1,4.1
		c-2.3,0.8-6,2.1-7.5,4.2c3.8-3.3,9-4.3,13.8-5.2c8.5-1.6,17.2-2.1,25.8-2.1V219.8z M10.5,219.8h-1v59c10.5,0.2,21.3,0.6,31.5,3.5
		c2.4,0.5,4.6,1.6,6.8,2.7c-0.7-0.4-1.3-1-2-1.3c-10.1-5-23.2-5.7-34.3-5.9c-0.6,0-1-0.4-1-1V219.8z M12.5,217.8v58
		c10.3,0.3,20.9,0.9,30.7,4.6c3.2,1.1,4.9,2.1,7.3,4.4v-55c-1.2-5.8-9.3-7.9-14.2-9.2C28.5,218.6,20.5,217.9,12.5,217.8z
		 M18.1,250.8c10.8,0.6,17.7,1.6,24.5,4.1c0,0,0,0,0.1,0c-0.1,0,0.9,0.3,1.2,0.5c1.1,0.4,1.9,0.8,2.7,1.3c0.3,0.2,0.5,0.5,0.5,0.8
		v15.9c0,0.7-0.8,1.2-1.4,0.9c-2.2-1-4-1.7-5.9-2.2c-0.3-0.1-0.6-0.2-1-0.3c-0.2-0.1-0.4-0.1-1-0.3c0,0,0,0,0,0v0
		c-6.5-1.7-13.1-2.3-19.8-2.8c-0.5,0-0.9-0.5-0.9-1v-16C17,251.2,17.5,250.7,18.1,250.8z M19,252.8v14c6.5,0.2,12.9,1.4,19.3,2.8
		c0,0,0,0,0,0l0,0c0,0,0,0,0,0c0.6,0.2,0.8,0.2,1,0.3c0.4,0.1,0.7,0.2,1,0.3c1.6,0.4,3.2,1,4.8,1.7v-13.8c-1-0.5-0.3-0.2-1.9-0.8
		c-0.3-0.1-1.3-0.5-1.2-0.4c-0.1,0-0.1,0-0.1,0C34.5,254.1,26.7,253.3,19,252.8z M84.5,205.2c-8.7,3.4-17.3,7.5-24.6,13.5
		c-3.2,2.6-6.8,5.8-7.4,10v54.9c7.9-10.2,20.2-16,32-20.5V205.2z M79.6,241.3c0.9,0.6,0.7,0.2,0.9,1v17.6c0,0.4-0.2,0.8-0.6,0.9
		c-0.3,0.1-0.5,0.2-1,0.5c0,0,0,0-0.1,0c-3.2,1.4-4.7,2.1-6.5,2.9c-7.4,3.6-10.9,5.7-14.1,9c-0.6,0.6-1.7,0.2-1.7-0.7v-16.7
		c0-0.3,0.1-0.5,0.3-0.7c5.8-5.8,11.9-9.3,22.3-13.7L79.6,241.3z M78.5,243.8c-7.4,2.9-14.2,6.9-20,12.4v14c3.8-3.4,8.5-5.6,13-7.9
		c1.8-0.8,3.3-1.5,6.5-3c0,0,0,0,0.1,0l0.4-0.2V243.8z M79.6,216.3c0.9,0.6,0.7,0.2,0.9,1v17.6c0,0.4-0.2,0.8-0.6,0.9
		c-0.3,0.1-0.5,0.2-1,0.5c0,0,0,0-0.1,0c-3.2,1.4-4.7,2.1-6.5,2.9c-7.4,3.6-10.9,5.7-14.1,9c-0.6,0.6-1.7,0.2-1.7-0.7v-16.7
		c0-0.3,0.1-0.5,0.3-0.7c5.8-5.8,11.9-9.3,22.3-13.7L79.6,216.3z M78.5,218.8c-7.4,2.9-14.2,6.9-20,12.4v14c3.8-3.4,8.5-5.6,13-7.9
		c1.8-0.8,3.3-1.5,6.5-3c0,0,0,0,0.1,0l0.4-0.2V218.8z M90.5,217.8c-0.8,0-1.7,0-2.5,0c-0.2,0-0.4,0-0.8,0c-0.4,0-0.2,0-0.7,0v45.9
		c0,0.4-0.3,0.8-0.7,0.9c-10.5,3.8-20.5,9-28.8,16.6c2.7-1.3,5.5-2,8.4-2.7c8.2-2.1,16.7-2.7,25.1-2.8V217.8z"/>
</g>
<path class="st0" d="M38.1,242.9c-0.2,0-0.3-0.1-0.5-0.1c-0.3-0.1-1.8-0.5-2.6-0.8c-9.4-2.8-17.6-3.8-23.7-4.3l-1.4-0.1
	c-0.5-0.1-0.9-0.5-0.9-1v-16.1c0-0.5,0.4-0.8,1-0.8c1,0,1.9,0,2.9,0c8.6,0.2,17.3,2.9,25.7,6.4c0.4,0.2,0.6,0.5,0.6,0.9l0,15
	c0,0.4-0.2,0.7-0.5,0.9C38.5,242.9,38.3,242.9,38.1,242.9z M11,235.6l0.5,0.1c6.2,0.5,14.5,1.5,24.1,4.3c0,0,0.8,0.2,1.5,0.5v-13
	c-8-3.2-16.1-5.9-24.3-6.1c-0.6,0-1.2,0-1.8,0V235.6z"/>
</svg>
