<?xml version="1.0" encoding="utf-8"?>
<!-- Generator: Adobe Illustrator 19.0.1, SVG Export Plug-In . SVG Version: 6.00 Build 0)  -->
<svg version="1.1" id="Слой_1" xmlns="http://www.w3.org/2000/svg" xmlns:xlink="http://www.w3.org/1999/xlink" x="0px" y="0px"
	 viewBox="0 0 70 70" style="enable-background:new 0 0 70 70;" xml:space="preserve">
<style type="text/css">
	.st0{fill:#010202;}
	.st1{fill:#69B53E;}
</style>
<g>
	<path class="st0" d="M29.5,59.1h13.4c0.9,0,1.6-0.7,1.6-1.6v-6.1c0-0.9-0.7-1.6-1.6-1.6H29.5c-0.9,0-1.6,0.7-1.6,1.6v6.1
		C28,58.4,28.6,59.1,29.5,59.1z M31.1,53h10.3v3H31.1V53z"/>
	<path class="st0" d="M54.1,12.9l-10.7-1l-4.2-9.8c-0.5-1.2-1.7-2-3-2s-2.5,0.8-3,2L29,11.9l-10.7,1c-1.3,0.1-2.4,1-2.8,2.2
		c-0.4,1.3,0,2.6,0.9,3.4l8,7.1l-2.3,10.4c-0.2,1,0,2,0.6,2.7c1,1.2,2.8,1.6,4.2,0.8l4.7-2.8c-0.2,2.5-0.5,5.1-1.2,7.6h-6.3
		c-0.9,0-1.6,0.7-1.6,1.6v15h-0.7c-0.9,0-1.6,0.7-1.6,1.6v5.8c0,0.9,0.7,1.6,1.6,1.6h28.9c0.9,0,1.6-0.7,1.6-1.6v-5.8
		c0-0.9-0.7-1.6-1.6-1.6h-0.7v-15c0-0.9-0.7-1.6-1.6-1.6H42c-0.7-2.5-1.1-5.1-1.2-7.6l4.7,2.8c0.5,0.3,1.1,0.5,1.7,0.5
		c1,0,1.9-0.5,2.6-1.2c0.6-0.8,0.8-1.8,0.6-2.7l-2.3-10.4l8-7.1c1-0.9,1.4-2.2,0.9-3.4S55.4,13,54.1,12.9z M49.1,66.9H23.3v-2.7
		h25.7L49.1,66.9L49.1,66.9z M46.8,61.1H25.6V47.6h21.1L46.8,61.1L46.8,61.1z M38.8,44.5h-5.1c0.8-3.3,1.1-6.6,1.2-9.5l1.4-0.8
		l1.4,0.8C37.7,37.9,37.9,41.2,38.8,44.5z M53.9,16.2l-8.7,7.7c-0.4,0.4-0.6,1-0.5,1.5l2.5,11.3c0,0.1,0,0.1,0,0.1
		c0,0-0.1,0.1-0.1,0.1c0,0,0,0-0.1,0L37,31c-0.2-0.1-0.5-0.2-0.8-0.2c-0.3,0-0.5,0.1-0.8,0.2l-10,5.9c0,0-0.1,0-0.1,0
		c0,0-0.1,0-0.1-0.1c0,0,0-0.1,0-0.1l2.5-11.3c0.1-0.6-0.1-1.1-0.5-1.5l-8.7-7.7c0,0-0.1-0.1,0-0.2c0-0.1,0.1-0.1,0.1-0.1l11.6-1.1
		c0.6-0.1,1.1-0.4,1.3-0.9l4.6-10.7c0,0,0-0.1,0.1-0.1c0.1,0,0.1,0.1,0.1,0.1L40.9,14c0.2,0.5,0.7,0.9,1.3,0.9L53.8,16
		c0,0,0.1,0,0.1,0.1C54,16.2,53.9,16.2,53.9,16.2z"/>
</g>
<g>
	<path class="st1" d="M24.3,25.7L22,36c-0.2,1,0,2.1,0.7,2.9c1,1.3,3,1.7,4.4,0.8l9.1-5.4l9.1,5.4c0.5,0.3,1.1,0.5,1.7,0.5
		c1,0,2-0.5,2.7-1.3c0.6-0.8,0.9-1.9,0.7-2.9L48,25.7l7.9-7c1-0.9,1.4-2.3,1-3.6c-0.4-1.3-1.6-2.2-2.9-2.4l-10.5-1l-4.2-9.7
		C38.8,0.8,37.6,0,36.2,0S33.6,0.8,33,2.1l-4.2,9.7l-10.5,1c-1.4,0.1-2.5,1-2.9,2.4c-0.4,1.3,0,2.7,1,3.6L24.3,25.7z M30.2,15.1
		c0.6-0.1,1.2-0.5,1.4-1l4.5-10.6l4.6,10.6c0.3,0.6,0.8,1,1.4,1l11.5,1L45,23.8c-0.5,0.4-0.7,1.1-0.5,1.7L47,36.7L37,30.8
		c-0.5-0.3-1.2-0.3-1.8,0l-9.9,5.9l2.5-11.3c0.1-0.6-0.1-1.3-0.5-1.7l-8.7-7.6L30.2,15.1z"/>
	<path class="st1" d="M34.6,16.3c0.5,0.2,1.1,0,1.3-0.5l0.1-0.3l1.4,3.3c0.1,0.3,0.4,0.6,0.8,0.6l3.6,0.3l-2.7,2.4
		c-0.3,0.2-0.4,0.6-0.3,0.9l0.4,1.8c0.1,0.5,0.5,0.8,1,0.8c0.1,0,0.1,0,0.2,0c0.5-0.1,0.9-0.6,0.7-1.2l-0.3-1.2l4-3.5
		c0.3-0.3,0.4-0.7,0.3-1C45,18.3,44.7,18,44.3,18L39,17.5l-2.1-4.9C36.7,12.3,36.4,12,36,12c-0.4,0-0.7,0.2-0.9,0.6l-1,2.4
		C33.8,15.5,34.1,16.1,34.6,16.3z"/>
	<path class="st1" d="M30,28.4c-0.1,0.4,0.1,0.8,0.4,1c0.2,0.1,0.4,0.2,0.6,0.2c0.2,0,0.3,0,0.5-0.1l4.6-2.7l4.6,2.7
		c0.3,0.2,0.8,0.2,1.1-0.1c0.3-0.2,0.5-0.6,0.4-1l-0.4-1.6c-0.1-0.5-0.6-0.9-1.2-0.7c-0.4,0.1-0.6,0.4-0.7,0.7l-3.3-1.9
		c-0.3-0.2-0.7-0.2-1,0l-3.1,1.8l0.8-3.5c0.1-0.3,0-0.7-0.3-0.9l-2.7-2.4l3.6-0.3c0.4,0,0.7-0.3,0.8-0.6l0.3-0.7
		c0.2-0.5,0-1.1-0.5-1.3c-0.5-0.2-1.1,0-1.3,0.5L33,17.5L27.7,18c-0.4,0-0.7,0.3-0.8,0.7c-0.1,0.4,0,0.8,0.3,1l4,3.5L30,28.4z"/>
</g>
</svg>
