<?xml version="1.0" encoding="utf-8"?>
<!-- Generator: Adobe Illustrator 19.0.1, SVG Export Plug-In . SVG Version: 6.00 Build 0)  -->
<svg version="1.1" id="Слой_1" xmlns="http://www.w3.org/2000/svg" xmlns:xlink="http://www.w3.org/1999/xlink" x="0px" y="0px"
	 viewBox="0 0 70 70" style="enable-background:new 0 0 70 70;" xml:space="preserve">
<style type="text/css">
	.st0{fill:#010202;}
	.st1{fill:#6AB53F;}
	.st2{clip-path:url(#SVGID_2_);}
	.st3{fill:#FFFFFF;}
</style>
<g>
	<defs>
		<rect id="SVGID_1_" x="-1.5" y="9.7" width="74.2" height="51.4"/>
	</defs>
	<clipPath id="SVGID_2_">
		<use xlink:href="#SVGID_1_"  style="overflow:visible;"/>
	</clipPath>
	<g class="st2">
		<path class="st0" d="M-11.7,63.3H1.1h44h47.6c0.5,0,0.9-0.4,0.9-0.9V1.9c0-0.5-0.4-0.9-0.9-0.9H-11.7c-0.5,0-0.9,0.4-0.9,0.9v60.5
			C-12.7,62.9-12.2,63.3-11.7,63.3z M-10.8,57.8v-3.7h3.7v3.7H-10.8z M-7.2,19.3h-3.7v-3.7h3.7V19.3z M-7.2,21.1v3.7h-3.7v-3.7H-7.2
			z M-7.2,26.6v3.7h-3.7v-3.7H-7.2z M-7.2,32.1v3.7h-3.7v-3.7C-10.8,32.1-7.2,32.1-7.2,32.1z M-7.2,37.6v3.7h-3.7v-3.7H-7.2z
			 M-7.2,43.1v3.7h-3.7v-3.7H-7.2z M-7.2,48.6v3.7h-3.7v-3.7H-7.2z M-7.2,13.8h-3.7v-3.7h3.7V13.8z M-10.8,59.6h4.6
			c0.5,0,0.9-0.4,0.9-0.9V9.2c0-0.5-0.4-0.9-0.9-0.9h-4.6V6.4h86.1v55H46v-1c0-3.5-1.9-4.9-5.1-6.1c-0.1,0-0.3-0.1-0.4-0.1V29.3
			c0-4-1.1-8.1-3.5-11.4c0-0.1-0.1-0.2-0.2-0.3h0c-2.7-3.4-7.1-5.7-13.6-5.7C8.8,11.9,5.7,24.5,5.7,29.4v24.9
			c-0.1,0-0.3,0.1-0.4,0.1C2,55.6,0.2,57,0.2,60.5v1h-11L-10.8,59.6L-10.8,59.6z M91.8,6.4v12.8H77.1V6.4
			C77.1,6.4,91.8,6.4,91.8,6.4z M16.6,49.5v-2.2c2.4,2,4.8,3.2,6.4,3.2c1.7,0,4.1-1.2,6.4-3.3v2.3c0,2.7,2.7,4.1,5.5,5v6.9H11.2
			v-6.9C14,53.6,16.6,52.2,16.6,49.5z M31.3,49.5v-4.1c3-3.3,5.5-7.8,5.5-12.6c0-0.5-0.4-0.9-0.9-0.9S35,32.3,35,32.8
			c0,4.6-2.4,8.7-5.2,11.6c0,0-0.1,0.1-0.1,0.1c-2.4,2.5-5.1,4.1-6.6,4.1c-2.9,0-10.8-6-11.8-13.9c-0.1-0.5-0.5-0.8-1-0.8
			c-0.5,0.1-0.8,0.5-0.8,1c0.5,4.2,2.8,7.8,5.4,10.6v4c0,2.2-4.3,3.4-7.1,4.1c-0.1,0-0.1,0-0.2,0V33.8c2.8-0.5,12.4-2.7,20.9-7.9
			c1.3,1.5,4.9,4.9,10.3,6.1v21.8c-0.1,0-0.1,0-0.2,0C35.6,52.9,31.3,51.7,31.3,49.5z M38.6,29.4v0.7c-4.4-1-7.4-3.8-8.7-5.2
			c2.2-1.5,4.3-3.1,6.1-5C38.3,23.4,38.6,27.5,38.6,29.4z M7.5,31.9v-2.5c0-4.3,2.8-15.6,15.6-15.6c5.9,0,9.5,2,11.8,4.6
			C26.5,27.3,11.6,31,7.5,31.9z M2,60.5c0-2.3,0.8-3.2,3.9-4.4c0.6-0.2,1.4-0.4,2.3-0.7c0.4-0.1,0.8-0.2,1.2-0.3v6.3H2L2,60.5
			L2,60.5z M36.8,61.4v-6.3c0.4,0.1,0.8,0.2,1.2,0.3c0.9,0.2,1.7,0.5,2.3,0.7c3,1.1,3.9,2.1,3.9,4.4v1L36.8,61.4L36.8,61.4z
			 M77.1,61.4V21.1h14.7v40.3H77.1L77.1,61.4z M-8.1,2.8C-8.6,2.8-9,3.2-9,3.7s0.4,0.9,0.9,0.9c0.5,0,0.9-0.4,0.9-0.9
			S-7.5,2.8-8.1,2.8h3.7c-0.5,0-0.9,0.4-0.9,0.9s0.4,0.9,0.9,0.9c0.5,0,0.9-0.4,0.9-0.9s-0.4-0.9-0.9-0.9h3.6
			c-0.5,0-0.9,0.4-0.9,0.9s0.4,0.9,0.9,0.9s0.9-0.4,0.9-0.9s-0.4-0.9-0.9-0.9h92.5v1.8H-0.7h-3.7H-8h-2.8V2.8H-8.1z"/>
		<path class="st0" d="M48.7,48.3h20.2c0.5,0,0.9-0.4,0.9-0.9V18.1c0-0.5-0.4-0.9-0.9-0.9H48.7c-0.5,0-0.9,0.4-0.9,0.9v29.3
			C47.8,47.9,48.2,48.3,48.7,48.3z M49.6,19h18.3v27.5H49.6V19z"/>
		<path class="st0" d="M65.2,24.5h-6.6c-0.4-1.1-1.4-1.8-2.6-1.8c-1.2,0-2.2,0.8-2.6,1.8h-1.1c-0.5,0-0.9,0.4-0.9,0.9
			s0.4,0.9,0.9,0.9h1.1c0.4,1.1,1.4,1.8,2.6,1.8c1.2,0,2.2-0.8,2.6-1.8h6.6c0.5,0,0.9-0.4,0.9-0.9S65.7,24.5,65.2,24.5z M56,26.3
			c-0.5,0-0.9-0.4-0.9-0.9s0.4-0.9,0.9-0.9c0.5,0,0.9,0.4,0.9,0.9C56.9,25.9,56.5,26.3,56,26.3z"/>
		<path class="st0" d="M65.2,39.1h-6.6c-0.4-1.1-1.4-1.8-2.6-1.8c-1.2,0-2.2,0.8-2.6,1.8h-1.1c-0.5,0-0.9,0.4-0.9,0.9
			c0,0.5,0.4,0.9,0.9,0.9h1.1c0.4,1.1,1.4,1.8,2.6,1.8c1.2,0,2.2-0.8,2.6-1.8h6.6c0.5,0,0.9-0.4,0.9-0.9
			C66.1,39.5,65.7,39.1,65.2,39.1z M56,41c-0.5,0-0.9-0.4-0.9-0.9c0-0.5,0.4-0.9,0.9-0.9c0.5,0,0.9,0.4,0.9,0.9
			C56.9,40.6,56.5,41,56,41z"/>
		<path class="st1" d="M65.2,31.8h-1.1c-0.4-1.1-1.4-1.8-2.6-1.8c-1.2,0-2.2,0.8-2.6,1.8h-6.6c-0.5,0-0.9,0.4-0.9,0.9
			s0.4,0.9,0.9,0.9h6.6c0.4,1.1,1.4,1.8,2.6,1.8c1.2,0,2.2-0.8,2.6-1.8h1.1c0.5,0,0.9-0.4,0.9-0.9S65.7,31.8,65.2,31.8z M61.5,33.6
			c-0.5,0-0.9-0.4-0.9-0.9s0.4-0.9,0.9-0.9c0.5,0,0.9,0.4,0.9,0.9C62.4,33.2,62,33.6,61.5,33.6z"/>
	</g>
</g>
</svg>
