<?xml version="1.0" encoding="utf-8"?>
<!-- Generator: Adobe Illustrator 19.0.1, SVG Export Plug-In . SVG Version: 6.00 Build 0)  -->
<svg version="1.1" id="Слой_1" xmlns="http://www.w3.org/2000/svg" xmlns:xlink="http://www.w3.org/1999/xlink" x="0px" y="0px"
	 viewBox="-199 188 100 125" style="enable-background:new -199 188 100 125;" xml:space="preserve">
<style type="text/css">
	.st0{fill:#69B53D;}
</style>
<g>
	<path class="st0" d="M-109.7,215.7c-3-3-7-4.7-11.3-4.7c-4.3,0-8.3,1.7-11.3,4.7l-3.5,3.5c-0.7,0.7-0.7,1.8,0,2.5l20.1,20.1
		c0.3,0.3,0.8,0.5,1.2,0.5c0.5,0,0.9-0.2,1.2-0.5l3.5-3.5c3-3,4.7-7,4.7-11.3C-105,222.7-106.7,218.7-109.7,215.7z M-112.1,235.8
		l-2.3,2.3l-17.6-17.6l2.3-2.3c2.4-2.4,5.5-3.6,8.8-3.6c3.3,0,6.5,1.3,8.8,3.6c2.4,2.4,3.6,5.5,3.6,8.8
		C-108.5,230.3-109.8,233.5-112.1,235.8z"/>
	<path d="M-135.9,226.8c-0.7-0.7-1.8-0.7-2.5,0l-9.4,9.4l-2.4-2.4c-0.7-0.7-1.8-0.7-2.5,0l-35.2,35.2c-6.9,6.9-6.9,18,0,24.9
		c3.4,3.4,7.9,5.1,12.4,5.1c4.5,0,9-1.7,12.4-5.1c0,0,0,0,0,0l35.2-35.2c0.3-0.3,0.5-0.8,0.5-1.2c0-0.5-0.2-0.9-0.5-1.2l-2.4-2.4
		l9.4-9.4c0.3-0.3,0.5-0.8,0.5-1.2s-0.2-0.9-0.5-1.2L-135.9,226.8z M-165.4,291.4C-165.4,291.4-165.4,291.4-165.4,291.4
		c-2.7,2.7-6.4,4.1-10,4.1s-7.2-1.4-10-4.1c-5.5-5.5-5.5-14.4,0-19.9l34-34l19.9,19.9L-165.4,291.4z M-132.6,251.3l-12.7-12.7
		l8.2-8.2l12.7,12.7L-132.6,251.3z"/>
	<rect x="-138.4" y="235" transform="matrix(0.707 -0.7072 0.7072 0.707 -207.5771 -27.0345)" width="4.1" height="4.1"/>
	<rect x="-133" y="240.4" transform="matrix(0.7072 -0.707 0.707 0.7072 -209.7469 -21.578)" width="4.1" height="4.1"/>
	<path class="st0" d="M-169.7,261.1l-13,13c-4,4-4,10.6,0,14.6c0.3,0.3,0.8,0.5,1.2,0.5c0.4,0,0.9-0.2,1.2-0.5
		c0.7-0.7,0.7-1.8,0-2.5c-2.7-2.7-2.7-7,0-9.7l13-13c0.7-0.7,0.7-1.8,0-2.5C-167.9,260.5-169,260.5-169.7,261.1z"/>
</g>
</svg>
