<?xml version="1.0" encoding="utf-8"?>
<!-- Generator: Adobe Illustrator 19.0.1, SVG Export Plug-In . SVG Version: 6.00 Build 0)  -->
<svg version="1.1" id="Слой_1" xmlns="http://www.w3.org/2000/svg" xmlns:xlink="http://www.w3.org/1999/xlink" x="0px" y="0px"
	 viewBox="0 0 70 70" style="enable-background:new 0 0 70 70;" xml:space="preserve">
<style type="text/css">
	.st0{fill:#010202;}
	.st1{fill:#6AB53F;}
	.st2{clip-path:url(#SVGID_2_);}
	.st3{fill:#FFFFFF;}
</style>
<g>
	<g>
		<path class="st0" d="M32.2,47.4c-1.1,0-2,0.4-2.9,1c-0.8-0.7-1.8-1-2.9-1c-1.3,0-2.6,0.6-3.5,1.6c-1,1.2-1.4,2.7-1.2,4.4
			c0.5,3.6,4,6.4,7.2,7.7c0.1,0,0.2,0.1,0.3,0.1c0.1,0,0.2,0,0.3-0.1c3.2-1.2,6.7-4.1,7.2-7.7c0.2-1.7-0.2-3.3-1.2-4.4
			C34.8,48,33.6,47.4,32.2,47.4z M37,41.5c0.2,0,0.4-0.1,0.6-0.2l2.8-2.6l2.2,1.3c0.4,0.3,1,0.1,1.2-0.3c0.3-0.4,0.1-1-0.3-1.2
			l-2.7-1.7c-0.3-0.2-0.8-0.2-1.1,0.1L36.4,40c-0.4,0.3-0.4,0.9,0,1.2C36.5,41.4,36.8,41.5,37,41.5z M63.7,19.2L27,9.7
			c-0.2-0.1-0.5,0-0.7,0.1c-0.2,0.1-0.3,0.3-0.4,0.5L23.4,20h-13c-0.5,0-0.9,0.4-0.9,0.9v37.2c0,0.5,0.4,0.9,0.9,0.9h7.9
			c2,4.1,6.2,7,11,7s9.1-2.9,11-7h7.9c0.5,0,0.9-0.4,0.9-0.9v-2.4L54,57c0.1,0,0.1,0,0.2,0c0.2,0,0.3,0,0.4-0.1
			c0.2-0.1,0.3-0.3,0.4-0.5l9.3-36C64.5,19.8,64.2,19.4,63.7,19.2z M29.4,64.2c-5.8,0-10.5-4.7-10.5-10.5s4.7-10.5,10.5-10.5
			s10.5,4.7,10.5,10.5S35.1,64.2,29.4,64.2z M27.5,33.9l-2.4-2.3c-0.3-0.3-0.8-0.3-1.1-0.1l-9.5,7.1v-1.3l10-7.6l10,9.6
			c0.2,0.2,0.4,0.2,0.6,0.2c0.2,0,0.4-0.1,0.6-0.2l4.8-4.2l4,2.8v8.6h-5.1c-2.2-3-5.8-5-9.9-5s-7.6,2-9.9,5h-5.1v-6.1
			c0.1,0,0.1,0,0.2,0c0.2,0,0.4-0.1,0.5-0.2l9.3-6.9l1.9,1.8c0.4,0.3,0.9,0.3,1.2,0C27.9,34.8,27.8,34.2,27.5,33.9z M14.4,35.1V24.9
			h29.9v10.9l-3.5-2.5c-0.3-0.2-0.8-0.2-1.1,0.1L35,37.5l-10-9.5c-0.3-0.3-0.8-0.3-1.1-0.1L14.4,35.1z M47.5,57.2h-6.4
			c0.3-1.1,0.5-2.3,0.5-3.5c0-2-0.5-3.8-1.3-5.5h4.9c0.5,0,0.9-0.4,0.9-0.9V24c0-0.5-0.4-0.9-0.9-0.9H13.5c-0.5,0-0.9,0.4-0.9,0.9
			v23.4c0,0.5,0.4,0.9,0.9,0.9h4.9c-0.8,1.6-1.3,3.5-1.3,5.5c0,1.2,0.2,2.4,0.5,3.5h-6.4V21.8h36.2V57.2z M28.5,20l1.2-4.5L47.2,20
			H28.5z M49.1,20.5l9.5,2.5l-2.7,10.6l-2.8-3.3c-0.3-0.3-0.7-0.4-1.1-0.2l-2.8,1.4V20.9C49.2,20.7,49.2,20.6,49.1,20.5z M54.4,35.9
			l-2.2-2.3c-0.3-0.3-0.7-0.4-1-0.2l-1.9,1v-1.1l3-1.5l3.1,3.7l-2.1,8.3l-4-1v-6.4l2.2-1.2l1.8,1.8c0.2,0.2,0.4,0.3,0.6,0.3
			c0.2,0,0.4-0.1,0.6-0.2C54.7,36.8,54.7,36.3,54.4,35.9z M53.6,55l-4.3-1.1v-9.3l4.4,1.1c0.1,0,0.1,0,0.2,0c0.4,0,0.7-0.3,0.8-0.7
			l5.9-22.6c0.1-0.2,0-0.5-0.1-0.7c-0.1-0.2-0.3-0.3-0.5-0.4l-30.7-8c-0.5-0.1-0.9,0.2-1.1,0.6L26.7,20h-1.4l2.2-8.4l35,9.1L53.6,55
			z"/>
	</g>
	<g>
		<path class="st3" d="M29.3,60.7c4.9-2.6,6.8-6.2,7.2-8.6c0.2-1.2-0.1-3-1.9-3.9c-1.2-0.6-2.5-0.4-3.4-0.1
			c-0.5,0.1-1.2,0.6-1.9,1.6h0c-0.7-1-1.4-1.4-1.9-1.6c-0.9-0.3-2.2-0.5-3.4,0.1c-1.8,0.9-2.1,2.7-1.9,3.9
			C22.5,54.5,24.4,58.1,29.3,60.7L29.3,60.7z"/>
		<path class="st1" d="M29.5,61.7H29l-0.2-0.1c-6.3-3.4-7.5-8-7.7-9.3c-0.3-1.6,0.2-3.9,2.5-4.9c1.6-0.7,3.3-0.4,4.1-0.1
			c0.5,0.2,1.1,0.5,1.6,1c0.5-0.5,1-0.8,1.6-1c0.9-0.3,2.6-0.6,4.1,0.1c2.2,1.1,2.7,3.3,2.5,4.9c-0.2,1.3-1.4,5.9-7.7,9.3L29.5,61.7
			z M25.7,48.9c-0.4,0-0.9,0.1-1.3,0.3c-1.6,0.8-1.4,2.5-1.3,2.8c0.3,2.2,2.1,5.3,6.2,7.6c4-2.3,5.9-5.4,6.2-7.6
			c0.1-0.3,0.2-2.1-1.3-2.8c-1-0.5-2.1-0.2-2.7,0c-0.2,0.1-0.8,0.4-1.3,1.2l-0.8,1.2l-0.8-1.2c-0.5-0.8-1.1-1.1-1.4-1.2
			C26.8,49,26.3,48.9,25.7,48.9z"/>
	</g>
</g>
</svg>
