<?xml version="1.0" encoding="utf-8"?>
<!-- Generator: Adobe Illustrator 19.0.1, SVG Export Plug-In . SVG Version: 6.00 Build 0)  -->
<svg version="1.1" id="Слой_1" xmlns="http://www.w3.org/2000/svg" xmlns:xlink="http://www.w3.org/1999/xlink" x="0px" y="0px"
	 viewBox="6 -70 512 640" style="enable-background:new 6 -70 512 640;" xml:space="preserve">
<style type="text/css">
	.st0{fill:#69B53D;}
</style>
<g>
	<path class="st0" d="M434.2,90.1L434.2,90.1c-2.3,0-4,1.8-4,4s1.8,4,4,4c2.2,0,4-1.8,4-4S436.4,90.1,434.2,90.1z"/>
	<path d="M34.1,250h56H282h207.9c2.2,0,4-1.8,4-4V-17.9c0-2.2-1.8-4-4-4H34.1c-2.2,0-4,1.8-4,4V246C30.1,248.3,31.9,250,34.1,250z
		 M38.1,226.1v-16h16v16H38.1z M54.1,58.1h-16v-16h16V58.1z M54.1,66.1v16h-16v-16H54.1z M54.1,90.1v16h-16v-16H54.1z M54.1,114.1
		v16h-16v-16H54.1z M54.1,138.1v16h-16v-16H54.1z M54.1,162.1v16h-16v-16H54.1z M54.1,186.1v16h-16v-16H54.1z M54.1,34.1h-16v-16h16
		V34.1z M38.1,234h20c2.2,0,4-1.8,4-4V14.1c0-2.2-1.8-4-4-4h-20v-8H414V242H286v-4.2c0-15.3-8.1-21.3-22.1-26.5
		c-0.5-0.2-1.3-0.4-1.9-0.6l0-108.7c0-17.5-4.6-35.5-15.4-49.6c-0.2-0.5-0.5-1-1-1.4c0,0-0.1,0-0.1,0c-12-14.8-31.1-24.9-59.5-24.9
		c-62.3,0-76,54.8-76,76v108.7c-0.6,0.2-1.3,0.4-1.9,0.6c-14,5.2-22.1,11.3-22.1,26.5v4.2h-48V234z M485.9,2.1v56h-64v-56H485.9z
		 M158,190.1v-9.8c10.4,8.7,21,13.8,28,13.8c7.3,0,17.8-5.3,28-14.2v10.2c0,11.6,11.6,17.8,24,22v30H134v-30
		C146.4,207.9,158,201.7,158,190.1z M222,190.1v-18c13.1-14.3,24-34.1,24-55c0-2.2-1.8-4-4-4c-2.2,0-4,1.8-4,4
		c0,19.9-10.6,38-22.6,50.6c-0.1,0.1-0.3,0.3-0.4,0.4c-10.6,11.1-22.3,17.9-29,17.9c-12.6,0-47-26.2-51.5-60.5
		c-0.3-2.2-2.4-3.7-4.5-3.4c-2.2,0.3-3.7,2.3-3.4,4.5c2.4,18.2,12.1,34.2,23.4,46.1v17.3c0,9.7-18.8,14.8-31.2,18.1
		c-0.3,0.1-0.5,0.1-0.8,0.2v-87c12.1-2.4,54.1-12,91.2-34.5c5.7,6.4,21.5,21.6,44.8,26.5l0,95c-0.3-0.1-0.5-0.1-0.8-0.2
		C240.8,204.8,222,199.7,222,190.1z M254,102.1v3.1c-19-4.5-32.4-16.8-37.9-22.7c9.6-6.4,18.6-13.7,26.5-22
		C252.6,75.9,254,93.8,254,102.1z M118,113.2v-11.1c0-18.9,12.2-68,68-68c25.7,0,41.6,8.7,51.6,20C201.2,93.3,135.9,109.4,118,113.2
		z M94.1,237.9c0-10,3.6-14.1,16.9-19c2.6-1,6-1.9,9.9-2.9c1.7-0.4,3.4-0.9,5.1-1.4V242h-32L94.1,237.9L94.1,237.9z M246,242v-27.6
		c1.7,0.5,3.5,1,5.1,1.4c3.9,1,7.4,2,9.9,2.9c13.3,5,16.9,9.1,16.9,19v4.2L246,242L246,242z M422,242V66.1h64V242L422,242L422,242z
		 M50.2-13.9c-2.2,0-4,1.8-4,4s1.8,4,4,4c2.2,0,4-1.8,4-4S52.5-13.9,50.2-13.9h16c-2.2,0-4,1.8-4,4s1.8,4,4,4c2.2,0,4-1.8,4-4
		s-1.8-4-4-4h15.9c-2.2,0-4,1.8-4,4s1.8,4,4,4c2.2,0,4-1.8,4-4s-1.8-4-4-4h403.6v8H82.3h-16h-16H38.1v-8H50.2z"/>
	<path class="st0" d="M433.9,26.1h40c2.2,0,4-1.8,4-4s-1.8-4-4-4h-40c-2.2,0-4,1.8-4,4C429.9,24.3,431.7,26.1,433.9,26.1z"/>
	<path class="st0" d="M473.9,34.1h-40c-2.2,0-4,1.8-4,4s1.8,4,4,4h40c2.2,0,4-1.8,4-4S476.1,34.1,473.9,34.1z"/>
	<path d="M473.9,90.1h-24c-2.2,0-4,1.8-4,4s1.8,4,4,4h24c2.2,0,4-1.8,4-4S476.1,90.1,473.9,90.1z"/>
	<path class="st0" d="M434.2,114.1L434.2,114.1c-2.3,0-4,1.8-4,4c0,2.2,1.8,4,4,4c2.2,0,4-1.8,4-4S436.4,114.1,434.2,114.1z"/>
	<path d="M473.9,114.1h-24c-2.2,0-4,1.8-4,4c0,2.2,1.8,4,4,4h24c2.2,0,4-1.8,4-4S476.1,114.1,473.9,114.1z"/>
	<path class="st0" d="M434.2,138.1L434.2,138.1c-2.3,0-4,1.8-4,4s1.8,4,4,4c2.2,0,4-1.8,4-4S436.4,138.1,434.2,138.1z"/>
	<path d="M473.9,138.1h-24c-2.2,0-4,1.8-4,4s1.8,4,4,4h24c2.2,0,4-1.8,4-4S476.1,138.1,473.9,138.1z"/>
	<path class="st0" d="M434.2,162.1L434.2,162.1c-2.3,0-4,1.8-4,4c0,2.2,1.8,4,4,4c2.2,0,4-1.8,4-4S436.4,162.1,434.2,162.1z"/>
	<path d="M473.9,162.1h-24c-2.2,0-4,1.8-4,4c0,2.2,1.8,4,4,4h24c2.2,0,4-1.8,4-4S476.1,162.1,473.9,162.1z"/>
	<path class="st0" d="M434.2,186.1L434.2,186.1c-2.3,0-4,1.8-4,4c0,2.2,1.8,4,4,4c2.2,0,4-1.8,4-4
		C438.2,187.9,436.4,186.1,434.2,186.1z"/>
	<path d="M473.9,186.1h-24c-2.2,0-4,1.8-4,4c0,2.2,1.8,4,4,4h24c2.2,0,4-1.8,4-4C477.9,187.9,476.1,186.1,473.9,186.1z"/>
	<path class="st0" d="M434.2,210.1L434.2,210.1c-2.3,0-4,1.8-4,4s1.8,4,4,4c2.2,0,4-1.8,4-4S436.4,210.1,434.2,210.1z"/>
	<path d="M473.9,210.1h-24c-2.2,0-4,1.8-4,4s1.8,4,4,4h24c2.2,0,4-1.8,4-4S476.1,210.1,473.9,210.1z"/>
	<path d="M298,186.1h88c2.2,0,4-1.8,4-4v-128c0-2.2-1.8-4-4-4h-88c-2.2,0-4,1.8-4,4v128C294,184.3,295.8,186.1,298,186.1z M302,58.1
		h80v120h-80V58.1z"/>
	<path d="M370,82.1h-28.7c-1.7-4.6-6.1-8-11.3-8c-5.2,0-9.6,3.4-11.3,8H314c-2.2,0-4,1.8-4,4c0,2.2,1.8,4,4,4h4.7
		c1.7,4.6,6.1,8,11.3,8c5.2,0,9.6-3.4,11.3-8H370c2.2,0,4-1.8,4-4S372.2,82.1,370,82.1z M330,90.1c-2.2,0-4-1.8-4-4c0-2.2,1.8-4,4-4
		c2.2,0,4,1.8,4,4C334,88.3,332.2,90.1,330,90.1z"/>
	<path d="M370,146.1h-28.7c-1.7-4.6-6.1-8-11.3-8c-5.2,0-9.6,3.4-11.3,8H314c-2.2,0-4,1.8-4,4c0,2.2,1.8,4,4,4h4.7
		c1.7,4.6,6.1,8,11.3,8c5.2,0,9.6-3.4,11.3-8H370c2.2,0,4-1.8,4-4S372.2,146.1,370,146.1z M330,154.1c-2.2,0-4-1.8-4-4
		c0-2.2,1.8-4,4-4c2.2,0,4,1.8,4,4C334,152.3,332.2,154.1,330,154.1z"/>
	<path d="M370,114.1h-4.7c-1.7-4.6-6.1-8-11.3-8c-5.2,0-9.6,3.4-11.3,8H314c-2.2,0-4,1.8-4,4c0,2.2,1.8,4,4,4h28.7
		c1.7,4.6,6.1,8,11.3,8c5.2,0,9.6-3.4,11.3-8h4.7c2.2,0,4-1.8,4-4S372.2,114.1,370,114.1z M354,122.1c-2.2,0-4-1.8-4-4
		c0-2.2,1.8-4,4-4s4,1.8,4,4C358,120.3,356.2,122.1,354,122.1z"/>
</g>
</svg>
