<?xml version="1.0" encoding="utf-8"?>
<!-- Generator: Adobe Illustrator 19.0.1, SVG Export Plug-In . SVG Version: 6.00 Build 0)  -->
<svg version="1.1" id="Слой_1" xmlns="http://www.w3.org/2000/svg" xmlns:xlink="http://www.w3.org/1999/xlink" x="0px" y="0px"
	 viewBox="0 0 70 70" style="enable-background:new 0 0 70 70;" xml:space="preserve">
<style type="text/css">
	.st0{fill:#010202;}
	.st1{fill:#69B53E;}
</style>
<g>
	<path class="st0" d="M50.3,37.1H19.7c-2.1,0-3.8,1.7-3.8,3.8v2.5c0,2.1,1.7,3.8,3.8,3.8h0.1v21.1c0,0.9,0.7,1.6,1.6,1.6h27.2
		c0.9,0,1.6-0.7,1.6-1.6V47.3h0.1c2.1,0,3.8-1.7,3.8-3.8V41C54.2,38.8,52.4,37.1,50.3,37.1z M51,43.4c0,0.4-0.3,0.7-0.7,0.7h-5.9
		c-0.9,0-1.6,0.7-1.6,1.6c0,0.9,0.7,1.6,1.6,1.6h2.6v19.6h-5.7V54.4c0-0.9-0.7-1.6-1.6-1.6s-1.6,0.7-1.6,1.6v12.4h-6.6V65
		c0-0.9-0.7-1.6-1.6-1.6c-0.9,0-1.6,0.7-1.6,1.6v1.8h-5.7V47.3h17.2c0.9,0,1.6-0.7,1.6-1.6s-0.7-1.6-1.6-1.6H19.7
		c-0.4,0-0.7-0.3-0.7-0.7V41c0-0.4,0.3-0.7,0.7-0.7h30.6c0.4,0,0.7,0.3,0.7,0.7V43.4z"/>
	<path class="st1" d="M24.4,23l-2.1,9.2c-0.2,0.9,0,1.9,0.6,2.6c0.9,1.2,2.7,1.5,4,0.7l8.1-4.8l8.1,4.8c0.5,0.3,1,0.4,1.6,0.4
		c0.9,0,1.8-0.4,2.4-1.2c0.6-0.7,0.8-1.7,0.6-2.6L45.7,23l7.1-6.2c0.9-0.8,1.3-2.1,0.9-3.3c-0.4-1.2-1.4-2-2.6-2.1l-9.4-0.9
		l-3.8-8.7C37.3,0.7,36.3,0,35,0s-2.3,0.7-2.8,1.9l-3.8,8.7L19,11.4c-1.2,0.1-2.3,0.9-2.6,2.1c-0.4,1.2,0,2.4,0.9,3.3L24.4,23z
		 M29.6,13.5c0.6-0.1,1.1-0.4,1.3-0.9L35,3.1l4.1,9.5c0.2,0.5,0.7,0.9,1.3,0.9l10.3,0.9l-7.8,6.9c-0.4,0.4-0.6,1-0.5,1.5l2.3,10.1
		l-8.9-5.3c-0.5-0.3-1.1-0.3-1.6,0l-8.9,5.3l2.3-10.1c0.1-0.6-0.1-1.1-0.5-1.5l-7.8-6.8L29.6,13.5z"/>
	<path class="st0" d="M30.2,52.9c-0.9,0-1.6,0.7-1.6,1.6v6.3c0,0.9,0.7,1.6,1.6,1.6c0.9,0,1.6-0.7,1.6-1.6v-6.3
		C31.7,53.5,31,52.9,30.2,52.9z"/>
	<path class="st1" d="M33.6,14.3c0.5,0.2,1.1,0,1.3-0.5l0.1-0.3l1.4,3.3c0.1,0.3,0.4,0.5,0.8,0.6l3.6,0.3l-2.7,2.4
		c-0.3,0.2-0.4,0.6-0.3,0.9l0.4,1.8c0.1,0.5,0.5,0.8,0.9,0.8c0.1,0,0.1,0,0.2,0c0.5-0.1,0.9-0.6,0.7-1.2l-0.3-1.2l4-3.5
		c0.3-0.3,0.4-0.7,0.3-1C44,16.3,43.7,16,43.3,16L38,15.5l-2.1-4.9C35.8,10.3,35.4,10,35,10c-0.4,0-0.7,0.2-0.9,0.6l-1,2.4
		C32.9,13.5,33.1,14.1,33.6,14.3z"/>
	<path class="st1" d="M29,26.3c-0.1,0.4,0.1,0.8,0.4,1c0.2,0.1,0.4,0.2,0.6,0.2c0.2,0,0.3,0,0.5-0.1l4.6-2.7l4.5,2.7
		c0.3,0.2,0.8,0.2,1.1-0.1c0.3-0.2,0.5-0.6,0.4-1l-0.4-1.6c-0.1-0.5-0.6-0.9-1.2-0.7c-0.4,0.1-0.6,0.4-0.7,0.7l-3.2-1.9
		c-0.3-0.2-0.7-0.2-1,0l-3.1,1.8l0.8-3.5c0.1-0.3,0-0.7-0.3-0.9l-2.7-2.4l3.6-0.3c0.4,0,0.7-0.3,0.8-0.6l0.3-0.7
		c0.2-0.5,0-1.1-0.5-1.3c-0.5-0.2-1.1,0-1.3,0.5L32,15.5L26.8,16c-0.4,0-0.7,0.3-0.8,0.7c-0.1,0.4,0,0.8,0.3,1l4,3.5L29,26.3z"/>
</g>
</svg>
