<?xml version="1.0" encoding="utf-8"?>
<!-- Generator: Adobe Illustrator 19.0.1, SVG Export Plug-In . SVG Version: 6.00 Build 0)  -->
<svg version="1.1" id="Слой_1" xmlns="http://www.w3.org/2000/svg" xmlns:xlink="http://www.w3.org/1999/xlink" x="0px" y="0px"
	 viewBox="0 0 70 70" style="enable-background:new 0 0 70 70;" xml:space="preserve">
<style type="text/css">
	.st0{fill:#010202;}
	.st1{fill:#6AB53F;}
	.st2{clip-path:url(#SVGID_2_);}
	.st3{fill:#FFFFFF;}
</style>
<g>
	<path class="st0" d="M64.9,19.9h-4.2v-4.2h-4.2v-4.2H12.6v4.2H8.5v4.2H4.3v33.4h4.2v4.2h4.2v4.2h43.9v-4.2h4.2v-4.2h4.2V19.9z
		 M6.4,51.2V21.9h2.1v29.2H6.4z M10.6,55.4v-2.1V19.9v-2.1h2.1v37.6H10.6z M54.4,59.5H14.7v-2.1V15.7v-2.1h39.7v2.1v41.8V59.5z
		 M58.6,55.4h-2.1V17.8h2.1v2.1v33.4V55.4z M62.8,51.2h-2.1V21.9h2.1V51.2z"/>
	<circle class="st1" cx="22" cy="20.9" r="1"/>
	<circle class="st0" cx="18.9" cy="17.8" r="1"/>
	<circle class="st0" cx="25.2" cy="17.8" r="1"/>
	<circle class="st0" cx="18.9" cy="24" r="1"/>
	<circle class="st0" cx="25.2" cy="24" r="1"/>
	<circle class="st1" cx="28.3" cy="20.9" r="1"/>
	<circle class="st1" cx="34.6" cy="20.9" r="1"/>
	<circle class="st0" cx="31.4" cy="17.8" r="1"/>
	<circle class="st0" cx="37.7" cy="17.8" r="1"/>
	<circle class="st0" cx="31.4" cy="24" r="1"/>
	<circle class="st0" cx="37.7" cy="24" r="1"/>
	<circle class="st1" cx="40.8" cy="20.9" r="1"/>
	<circle class="st1" cx="47.1" cy="20.9" r="1"/>
	<circle class="st0" cx="44" cy="17.8" r="1"/>
	<circle class="st0" cx="50.2" cy="17.8" r="1"/>
	<circle class="st0" cx="44" cy="24" r="1"/>
	<circle class="st0" cx="50.2" cy="24" r="1"/>
	<circle class="st1" cx="22" cy="27.2" r="1"/>
	<circle class="st1" cx="22" cy="33.4" r="1"/>
	<circle class="st0" cx="18.9" cy="30.3" r="1"/>
	<circle class="st0" cx="25.2" cy="30.3" r="1"/>
	<circle class="st0" cx="18.9" cy="36.6" r="1"/>
	<circle class="st0" cx="25.2" cy="36.6" r="1"/>
	<circle class="st1" cx="28.3" cy="27.2" r="1"/>
	<circle class="st1" cx="34.6" cy="27.2" r="1"/>
	<circle class="st1" cx="28.3" cy="33.4" r="1"/>
	<circle class="st1" cx="34.6" cy="33.4" r="1"/>
	<circle class="st0" cx="31.4" cy="30.3" r="1"/>
	<circle class="st0" cx="37.7" cy="30.3" r="1"/>
	<circle class="st0" cx="31.4" cy="36.6" r="1"/>
	<circle class="st0" cx="37.7" cy="36.6" r="1"/>
	<circle class="st1" cx="40.8" cy="27.2" r="1"/>
	<circle class="st1" cx="47.1" cy="27.2" r="1"/>
	<circle class="st1" cx="40.8" cy="33.4" r="1"/>
	<circle class="st1" cx="47.1" cy="33.4" r="1"/>
	<circle class="st0" cx="44" cy="30.3" r="1"/>
	<circle class="st0" cx="50.2" cy="30.3" r="1"/>
	<circle class="st0" cx="44" cy="36.6" r="1"/>
	<circle class="st0" cx="50.2" cy="36.6" r="1"/>
	<circle class="st1" cx="22" cy="39.7" r="1"/>
	<circle class="st1" cx="22" cy="46" r="1"/>
	<circle class="st0" cx="18.9" cy="42.8" r="1"/>
	<circle class="st0" cx="25.2" cy="42.8" r="1"/>
	<circle class="st0" cx="18.9" cy="49.1" r="1"/>
	<circle class="st0" cx="25.2" cy="49.1" r="1"/>
	<circle class="st1" cx="28.3" cy="39.7" r="1"/>
	<circle class="st1" cx="34.6" cy="39.7" r="1"/>
	<circle class="st1" cx="28.3" cy="46" r="1"/>
	<circle class="st1" cx="34.6" cy="46" r="1"/>
	<circle class="st0" cx="31.4" cy="42.8" r="1"/>
	<circle class="st0" cx="37.7" cy="42.8" r="1"/>
	<circle class="st0" cx="31.4" cy="49.1" r="1"/>
	<circle class="st0" cx="37.7" cy="49.1" r="1"/>
	<circle class="st1" cx="40.8" cy="39.7" r="1"/>
	<circle class="st1" cx="47.1" cy="39.7" r="1"/>
	<circle class="st1" cx="40.8" cy="46" r="1"/>
	<circle class="st1" cx="47.1" cy="46" r="1"/>
	<circle class="st0" cx="44" cy="42.8" r="1"/>
	<circle class="st0" cx="50.2" cy="42.8" r="1"/>
	<circle class="st0" cx="44" cy="49.1" r="1"/>
	<circle class="st0" cx="50.2" cy="49.1" r="1"/>
	<circle class="st1" cx="22" cy="52.2" r="1"/>
	<circle class="st0" cx="18.9" cy="55.4" r="1"/>
	<circle class="st0" cx="25.2" cy="55.4" r="1"/>
	<circle class="st1" cx="28.3" cy="52.2" r="1"/>
	<circle class="st1" cx="34.6" cy="52.2" r="1"/>
	<circle class="st0" cx="31.4" cy="55.4" r="1"/>
	<circle class="st0" cx="37.7" cy="55.4" r="1"/>
	<circle class="st1" cx="40.8" cy="52.2" r="1"/>
	<circle class="st1" cx="47.1" cy="52.2" r="1"/>
	<circle class="st0" cx="44" cy="55.4" r="1"/>
	<circle class="st0" cx="50.2" cy="55.4" r="1"/>
</g>
</svg>
