<?xml version="1.0" encoding="utf-8"?>
<!-- Generator: Adobe Illustrator 19.0.1, SVG Export Plug-In . SVG Version: 6.00 Build 0)  -->
<svg version="1.1" id="Слой_1" xmlns="http://www.w3.org/2000/svg" xmlns:xlink="http://www.w3.org/1999/xlink" x="0px" y="0px"
	 viewBox="-199 188 100 125" style="enable-background:new -199 188 100 125;" xml:space="preserve">
<style type="text/css">
	.st0{fill:#69B53D;}
</style>
<g>
	<path class="st0" d="M-189.1,239.9c0.3,0,0.5-0.2,0.5-0.5v-1c0-0.3-0.2-0.5-0.5-0.5s-0.5,0.2-0.5,0.5v1
		C-189.6,239.6-189.4,239.9-189.1,239.9z"/>
	<path d="M-189.1,242.4c0.3,0,0.5-0.2,0.5-0.5v-1c0-0.3-0.2-0.5-0.5-0.5s-0.5,0.2-0.5,0.5v1C-189.6,242.1-189.4,242.4-189.1,242.4z"
		/>
	<path class="st0" d="M-188.6,253.3c0-0.3-0.3-0.5-0.5-0.5c-0.3,0-0.5,0.3-0.5,0.5c0,0.5,0.3,0.9,0.7,1.2c0.1,0.1,0.2,0.1,0.3,0.1
		c0.2,0,0.3-0.1,0.4-0.2c0.2-0.2,0.1-0.5-0.1-0.7C-188.5,253.7-188.6,253.5-188.6,253.3z"/>
	<path d="M-189.1,232.4c0.3,0,0.5-0.2,0.5-0.5v-1c0-0.3-0.2-0.5-0.5-0.5s-0.5,0.2-0.5,0.5v1C-189.6,232.2-189.4,232.4-189.1,232.4z"
		/>
	<path class="st0" d="M-189.1,234.9c0.3,0,0.5-0.2,0.5-0.5v-1c0-0.3-0.2-0.5-0.5-0.5s-0.5,0.2-0.5,0.5v1
		C-189.6,234.7-189.4,234.9-189.1,234.9z"/>
	<path class="st0" d="M-189.1,249.8c0.3,0,0.5-0.2,0.5-0.5v-1c0-0.3-0.2-0.5-0.5-0.5s-0.5,0.2-0.5,0.5v1
		C-189.6,249.6-189.4,249.8-189.1,249.8z"/>
	<path class="st0" d="M-189.1,244.9c0.3,0,0.5-0.2,0.5-0.5v-1c0-0.3-0.2-0.5-0.5-0.5s-0.5,0.2-0.5,0.5v1
		C-189.6,244.6-189.4,244.9-189.1,244.9z"/>
	<path d="M-189.1,252.3c0.3,0,0.5-0.2,0.5-0.5v-1c0-0.3-0.2-0.5-0.5-0.5s-0.5,0.2-0.5,0.5v1C-189.6,252.1-189.4,252.3-189.1,252.3z"
		/>
	<path d="M-189.1,247.3c0.3,0,0.5-0.2,0.5-0.5v-1c0-0.3-0.2-0.5-0.5-0.5s-0.5,0.2-0.5,0.5v1C-189.6,247.1-189.4,247.3-189.1,247.3z"
		/>
	<path d="M-189.1,237.4c0.3,0,0.5-0.2,0.5-0.5v-1c0-0.3-0.2-0.5-0.5-0.5s-0.5,0.2-0.5,0.5v1C-189.6,237.1-189.4,237.4-189.1,237.4z"
		/>
	<path class="st0" d="M-189.1,219.9c0.3,0,0.5-0.2,0.5-0.5v-1c0-0.3-0.2-0.5-0.5-0.5s-0.5,0.2-0.5,0.5v1
		C-189.6,219.7-189.4,219.9-189.1,219.9z"/>
	<path class="st0" d="M-189.1,214.9c0.3,0,0.5-0.2,0.5-0.5v-1c0-0.3-0.2-0.5-0.5-0.5s-0.5,0.2-0.5,0.5v1
		C-189.6,214.7-189.4,214.9-189.1,214.9z"/>
	<path d="M-189.1,217.4c0.3,0,0.5-0.2,0.5-0.5v-1c0-0.3-0.2-0.5-0.5-0.5s-0.5,0.2-0.5,0.5v1C-189.6,217.2-189.4,217.4-189.1,217.4z"
		/>
	<path class="st0" d="M-189.1,229.9c0.3,0,0.5-0.2,0.5-0.5v-1c0-0.3-0.2-0.5-0.5-0.5s-0.5,0.2-0.5,0.5v1
		C-189.6,229.7-189.4,229.9-189.1,229.9z"/>
	<path d="M-189.1,212.4c0.3,0,0.5-0.2,0.5-0.5v-1c0-0.3-0.2-0.5-0.5-0.5s-0.5,0.2-0.5,0.5v1C-189.6,212.2-189.4,212.4-189.1,212.4z"
		/>
	<path d="M-189.1,222.4c0.3,0,0.5-0.2,0.5-0.5v-1c0-0.3-0.2-0.5-0.5-0.5s-0.5,0.2-0.5,0.5v1C-189.6,222.2-189.4,222.4-189.1,222.4z"
		/>
	<path d="M-189.1,227.4c0.3,0,0.5-0.2,0.5-0.5v-1c0-0.3-0.2-0.5-0.5-0.5s-0.5,0.2-0.5,0.5v1C-189.6,227.2-189.4,227.4-189.1,227.4z"
		/>
	<path class="st0" d="M-189.1,224.9c0.3,0,0.5-0.2,0.5-0.5v-1c0-0.3-0.2-0.5-0.5-0.5s-0.5,0.2-0.5,0.5v1
		C-189.6,224.7-189.4,224.9-189.1,224.9z"/>
	<path d="M-187.3,249.3c0,0.3,0.2,0.5,0.5,0.5s0.5-0.2,0.5-0.5v-1c0-0.3-0.2-0.5-0.5-0.5s-0.5,0.2-0.5,0.5V249.3z"/>
	<path class="st0" d="M-187.3,241.9c0,0.3,0.2,0.5,0.5,0.5s0.5-0.2,0.5-0.5v-1c0-0.3-0.2-0.5-0.5-0.5s-0.5,0.2-0.5,0.5V241.9z"/>
	<path class="st0" d="M-187.3,236.9c0,0.3,0.2,0.5,0.5,0.5s0.5-0.2,0.5-0.5v-1c0-0.3-0.2-0.5-0.5-0.5s-0.5,0.2-0.5,0.5V236.9z"/>
	<path d="M-187.3,239.4c0,0.3,0.2,0.5,0.5,0.5s0.5-0.2,0.5-0.5v-1c0-0.3-0.2-0.5-0.5-0.5s-0.5,0.2-0.5,0.5V239.4z"/>
	<path d="M-187.3,234.4c0,0.3,0.2,0.5,0.5,0.5s0.5-0.2,0.5-0.5v-1c0-0.3-0.2-0.5-0.5-0.5s-0.5,0.2-0.5,0.5V234.4z"/>
	<path class="st0" d="M-187.3,251.8c0,0.3,0.2,0.5,0.5,0.5s0.5-0.2,0.5-0.5v-1c0-0.3-0.2-0.5-0.5-0.5s-0.5,0.2-0.5,0.5V251.8z"/>
	<path class="st0" d="M-187.3,231.9c0,0.3,0.2,0.5,0.5,0.5s0.5-0.2,0.5-0.5v-1c0-0.3-0.2-0.5-0.5-0.5s-0.5,0.2-0.5,0.5V231.9z"/>
	<path d="M-187.3,244.3c0,0.3,0.2,0.5,0.5,0.5s0.5-0.2,0.5-0.5v-1c0-0.3-0.2-0.5-0.5-0.5s-0.5,0.2-0.5,0.5V244.3z"/>
	<path class="st0" d="M-187.3,246.8c0,0.3,0.2,0.5,0.5,0.5s0.5-0.2,0.5-0.5v-1c0-0.3-0.2-0.5-0.5-0.5s-0.5,0.2-0.5,0.5V246.8z"/>
	<path d="M-187.3,214.4c0,0.3,0.2,0.5,0.5,0.5s0.5-0.2,0.5-0.5v-1c0-0.3-0.2-0.5-0.5-0.5s-0.5,0.2-0.5,0.5V214.4z"/>
	<path class="st0" d="M-186.8,212.4c0.3,0,0.5-0.2,0.5-0.5v-1c0-0.3-0.2-0.5-0.5-0.5s-0.5,0.2-0.5,0.5v1
		C-187.3,212.2-187.1,212.4-186.8,212.4z"/>
	<path class="st0" d="M-187.3,216.9c0,0.3,0.2,0.5,0.5,0.5s0.5-0.2,0.5-0.5v-1c0-0.3-0.2-0.5-0.5-0.5s-0.5,0.2-0.5,0.5V216.9z"/>
	<path d="M-186.8,252.8c-0.3,0-0.5,0.2-0.5,0.5c0,0.2-0.1,0.4-0.3,0.5c-0.2,0.2-0.3,0.5-0.1,0.7c0.1,0.1,0.2,0.2,0.4,0.2
		c0.1,0,0.2,0,0.3-0.1c0.4-0.3,0.6-0.7,0.6-1.2C-186.3,253.1-186.5,252.8-186.8,252.8z"/>
	<path d="M-187.3,219.4c0,0.3,0.2,0.5,0.5,0.5s0.5-0.2,0.5-0.5v-1c0-0.3-0.2-0.5-0.5-0.5s-0.5,0.2-0.5,0.5V219.4z"/>
	<path d="M-187.3,229.4c0,0.3,0.2,0.5,0.5,0.5s0.5-0.2,0.5-0.5v-1c0-0.3-0.2-0.5-0.5-0.5s-0.5,0.2-0.5,0.5V229.4z"/>
	<path class="st0" d="M-187.3,226.9c0,0.3,0.2,0.5,0.5,0.5s0.5-0.2,0.5-0.5v-1c0-0.3-0.2-0.5-0.5-0.5s-0.5,0.2-0.5,0.5V226.9z"/>
	<path class="st0" d="M-187.3,221.9c0,0.3,0.2,0.5,0.5,0.5s0.5-0.2,0.5-0.5v-1c0-0.3-0.2-0.5-0.5-0.5s-0.5,0.2-0.5,0.5V221.9z"/>
	<path d="M-187.3,224.4c0,0.3,0.2,0.5,0.5,0.5s0.5-0.2,0.5-0.5v-1c0-0.3-0.2-0.5-0.5-0.5s-0.5,0.2-0.5,0.5V224.4z"/>
	<path d="M-109.1,269.8c-8.3,0-12.4-3.1-12.4-9.4v-51.5c0-2.4-1.9-4.3-4.3-4.3h-56.1c-2.1,0-3.9,1.5-4.2,3.6h-0.6
		c-0.3-0.5-0.8-0.8-1.4-0.8c-0.9,0-1.6,0.7-1.6,1.6s0.7,1.6,1.6,1.6c0.6,0,1.1-0.3,1.3-0.8h0.6c0.3,1.7,1.7,3.1,3.4,3.4v47.8
		l-3.8,9.4c-0.2,0.4,0,0.8,0.4,1c0.1,0,0.2,0.1,0.3,0.1c0.3,0,0.6-0.2,0.7-0.5l2.4-5.9v5.6c0,0.4,0.3,0.8,0.8,0.8s0.8-0.3,0.8-0.8
		V265l2.4,5.9c0.1,0.3,0.4,0.5,0.7,0.5c0.1,0,0.2,0,0.3-0.1c0.4-0.2,0.6-0.6,0.4-1l-3.8-9.4v-47.7h2v47.2c0,7.2,4.7,10.9,13.9,10.9
		h56.1c0.4,0,0.8-0.3,0.8-0.8S-108.7,269.8-109.1,269.8z M-188,209.7c-0.4,0-0.8-0.3-0.8-0.8s0.3-0.8,0.8-0.8c0.4,0,0.8,0.3,0.8,0.8
		S-187.6,209.7-188,209.7z M-182.6,211.6c-0.9-0.3-1.6-1-1.9-1.9h1.3c0.1,0.2,0.3,0.4,0.6,0.6L-182.6,211.6L-182.6,211.6z
		 M-181.1,211.6v-1.3c0.5-0.3,0.8-0.8,0.8-1.4c0-0.9-0.7-1.6-1.6-1.6c-0.6,0-1.1,0.3-1.4,0.8h-1.3c0.3-1.2,1.4-2.1,2.7-2.1
		c1.5,0,2.8,1.2,2.8,2.8C-179.1,210.2-179.9,211.3-181.1,211.6z M-165.2,269.8c-8.3,0-12.4-3.1-12.4-9.4v-51.5c0-1.1-0.4-2-1-2.8h0
		h52.8c1.5,0,2.8,1.2,2.8,2.8v51.5c0,4.6,1.9,7.7,5.5,9.4C-117.5,269.8-165.2,269.8-165.2,269.8z"/>
</g>
</svg>
